<?xml version="1.0" encoding="UTF-8"?>
<svg xmlns="http://www.w3.org/2000/svg" xmlns:xlink="http://www.w3.org/1999/xlink" width="4000" height="4000" viewBox="0 0 4000 4000">
<defs>
<clipPath id="clip-0">

</clipPath>
<clipPath id="clip-1">
<path clip-rule="nonzero" d="M 4000 1384.589844 L 4000 3291.191406 L 0 3291.191406 L 0 2780.800781 C 138.191406 2123.890625 463.769531 1081.078125 1123.789062 1211.039062 C 2078.980469 1399.128906 2004.039062 1727.210938 2519.46875 1587.679688 C 3034.890625 1448.148438 2979.441406 1196.878906 3427.929688 1199.960938 C 3622.328125 1201.289062 3827.179688 1281.800781 4000 1384.589844 Z M 4000 1384.589844 "/>
</clipPath>
<clipPath id="clip-2">
<path clip-rule="nonzero" d="M 4000 1384.589844 L 4000 3291.191406 L 0 3291.191406 L 0 2780.800781 C 138.191406 2123.890625 463.769531 1081.078125 1123.789062 1211.039062 C 2078.980469 1399.128906 2004.039062 1727.210938 2519.46875 1587.679688 C 3034.890625 1448.148438 2979.441406 1196.878906 3427.929688 1199.960938 C 3622.328125 1201.289062 3827.179688 1281.800781 4000 1384.589844 "/>
</clipPath>
<linearGradient id="linear-pattern-0" gradientUnits="userSpaceOnUse" x1="-1.528638" y1="0" x2="0.685584" y2="0" gradientTransform="matrix(22.1424, 1036.27, -1036.27, 22.1424, 2006.09, 2623.02)">
<stop offset="0" stop-color="rgb(98.431396%, 98.03772%, 100%)" stop-opacity="1"/>
<stop offset="0.5" stop-color="rgb(98.431396%, 98.03772%, 100%)" stop-opacity="1"/>
<stop offset="0.625" stop-color="rgb(98.431396%, 98.03772%, 100%)" stop-opacity="1"/>
<stop offset="0.6875" stop-color="rgb(98.431396%, 98.03772%, 100%)" stop-opacity="1"/>
<stop offset="0.703125" stop-color="rgb(98.269653%, 97.875977%, 100%)" stop-opacity="1"/>
<stop offset="0.710937" stop-color="rgb(98.008728%, 97.616577%, 100%)" stop-opacity="1"/>
<stop offset="0.71875" stop-color="rgb(97.81189%, 97.419739%, 100%)" stop-opacity="1"/>
<stop offset="0.726562" stop-color="rgb(97.613525%, 97.221375%, 100%)" stop-opacity="1"/>
<stop offset="0.734375" stop-color="rgb(97.416687%, 97.024536%, 100%)" stop-opacity="1"/>
<stop offset="0.742187" stop-color="rgb(97.218323%, 96.826172%, 100%)" stop-opacity="1"/>
<stop offset="0.75" stop-color="rgb(97.021484%, 96.629333%, 100%)" stop-opacity="1"/>
<stop offset="0.757812" stop-color="rgb(96.82312%, 96.430969%, 100%)" stop-opacity="1"/>
<stop offset="0.765625" stop-color="rgb(96.626282%, 96.234131%, 100%)" stop-opacity="1"/>
<stop offset="0.773437" stop-color="rgb(96.427917%, 96.035767%, 100%)" stop-opacity="1"/>
<stop offset="0.78125" stop-color="rgb(96.231079%, 95.838928%, 100%)" stop-opacity="1"/>
<stop offset="0.789062" stop-color="rgb(96.032715%, 95.640564%, 100%)" stop-opacity="1"/>
<stop offset="0.796875" stop-color="rgb(95.835876%, 95.443726%, 100%)" stop-opacity="1"/>
<stop offset="0.804687" stop-color="rgb(95.637512%, 95.245361%, 100%)" stop-opacity="1"/>
<stop offset="0.8125" stop-color="rgb(95.440674%, 95.048523%, 100%)" stop-opacity="1"/>
<stop offset="0.820312" stop-color="rgb(95.24231%, 94.850159%, 100%)" stop-opacity="1"/>
<stop offset="0.828125" stop-color="rgb(95.045471%, 94.65332%, 100%)" stop-opacity="1"/>
<stop offset="0.835937" stop-color="rgb(94.847107%, 94.454956%, 100%)" stop-opacity="1"/>
<stop offset="0.84375" stop-color="rgb(94.650269%, 94.258118%, 100%)" stop-opacity="1"/>
<stop offset="0.851562" stop-color="rgb(94.451904%, 94.059753%, 100%)" stop-opacity="1"/>
<stop offset="0.859375" stop-color="rgb(94.255066%, 93.862915%, 100%)" stop-opacity="1"/>
<stop offset="0.867187" stop-color="rgb(94.056702%, 93.664551%, 100%)" stop-opacity="1"/>
<stop offset="0.875" stop-color="rgb(93.859863%, 93.467712%, 100%)" stop-opacity="1"/>
<stop offset="0.882812" stop-color="rgb(93.663025%, 93.270874%, 100%)" stop-opacity="1"/>
<stop offset="0.890625" stop-color="rgb(93.464661%, 93.07251%, 100%)" stop-opacity="1"/>
<stop offset="0.898437" stop-color="rgb(93.267822%, 92.875671%, 100%)" stop-opacity="1"/>
<stop offset="0.90625" stop-color="rgb(93.069458%, 92.677307%, 100%)" stop-opacity="1"/>
<stop offset="0.914062" stop-color="rgb(92.87262%, 92.480469%, 100%)" stop-opacity="1"/>
<stop offset="0.921875" stop-color="rgb(92.674255%, 92.282104%, 100%)" stop-opacity="1"/>
<stop offset="0.929687" stop-color="rgb(92.477417%, 92.085266%, 100%)" stop-opacity="1"/>
<stop offset="0.9375" stop-color="rgb(92.279053%, 91.886902%, 100%)" stop-opacity="1"/>
<stop offset="0.945312" stop-color="rgb(92.082214%, 91.690063%, 100%)" stop-opacity="1"/>
<stop offset="0.953125" stop-color="rgb(91.88385%, 91.491699%, 100%)" stop-opacity="1"/>
<stop offset="0.960937" stop-color="rgb(91.687012%, 91.294861%, 100%)" stop-opacity="1"/>
<stop offset="0.96875" stop-color="rgb(91.488647%, 91.096497%, 100%)" stop-opacity="1"/>
<stop offset="0.976562" stop-color="rgb(91.291809%, 90.899658%, 100%)" stop-opacity="1"/>
<stop offset="0.984375" stop-color="rgb(91.093445%, 90.701294%, 100%)" stop-opacity="1"/>
<stop offset="0.992187" stop-color="rgb(90.896606%, 90.504456%, 100%)" stop-opacity="1"/>
<stop offset="1" stop-color="rgb(90.698242%, 90.306091%, 100%)" stop-opacity="1"/>
</linearGradient>
</defs>

<g clip-path="url(#clip-0)">
<g clip-path="url(#clip-1)">
<g clip-path="url(#clip-2)">
<path fill-rule="nonzero" fill="url(#linear-pattern-0)" d="M 3998.175781 995.648438 L -47.203125 1082.089844 L 1.824219 3376.621094 L 4047.203125 3290.179688 Z M 3998.175781 995.648438 "/>
</g>
</g>
</g>
<path fill-rule="nonzero" fill="rgb(66.992188%, 66.209412%, 99.21875%)" fill-opacity="1" d="M 1397.789062 2056.878906 C 1397.988281 2057.210938 1401.238281 2062.460938 1406.621094 2070.738281 C 1426.308594 2101.039062 1474.609375 2171.960938 1507.210938 2190.988281 C 1549.019531 2215.378906 1548.289062 2264.359375 1571.371094 2301.71875 C 1594.449219 2339.078125 1642.371094 2323.238281 1657.800781 2366.570312 C 1673.25 2409.910156 1626.039062 2459.570312 1671.820312 2488.300781 C 1717.609375 2517.03125 1783.699219 2502.460938 1799.28125 2572.011719 C 1811.941406 2628.539062 1732.601562 2758.339844 1702.429688 2804.96875 C 1700.949219 2807.25 1699.601562 2809.320312 1698.378906 2811.191406 C 1693.839844 2818.121094 1691.140625 2822.058594 1691.140625 2822.058594 L 1495.980469 2545.050781 C 1495.980469 2545.050781 1475.558594 2497.53125 1454.910156 2381.621094 C 1434.269531 2265.710938 1399.460938 2281.480469 1393.578125 2196.910156 C 1388.800781 2128.421875 1394.519531 2079.019531 1396.871094 2062.699219 C 1397.390625 2059.058594 1397.738281 2057.070312 1397.789062 2056.878906 "/>
<path fill-rule="nonzero" fill="rgb(100%, 100%, 100%)" fill-opacity="1" d="M 1397.789062 2056.878906 C 1397.988281 2057.210938 1401.238281 2062.460938 1406.621094 2070.738281 C 1449.789062 2183.578125 1614.339844 2611.25 1702.429688 2804.96875 C 1700.949219 2807.25 1699.601562 2809.320312 1698.378906 2811.191406 C 1607.308594 2612.179688 1433.839844 2159.640625 1396.871094 2062.699219 C 1397.390625 2059.058594 1397.738281 2057.070312 1397.789062 2056.878906 "/>
<path fill-rule="nonzero" fill="rgb(54.101562%, 54.101562%, 89.451599%)" fill-opacity="1" d="M 2237.71875 1767.398438 C 2235.871094 1770.238281 2234.121094 1772.710938 2232.511719 1774.78125 C 2228.980469 1779.289062 2226.078125 1781.789062 2224.101562 1781.789062 C 2208.859375 1781.789062 2131.269531 1705.488281 2131.269531 1705.488281 C 2131.269531 1705.488281 2098.941406 1638.238281 2113.160156 1514.078125 C 2127.378906 1389.929688 2076.941406 1377 2076.941406 1326.570312 C 2076.941406 1284.21875 2085.148438 1189.921875 2087.800781 1160.75 C 2088.289062 1155.171875 2088.589844 1151.980469 2088.589844 1151.980469 C 2088.589844 1151.980469 2090.949219 1155.980469 2094.949219 1162.78125 C 2112.859375 1193.289062 2163.808594 1280.261719 2183.488281 1316.21875 C 2207.558594 1360.191406 2203.128906 1401.570312 2224.101562 1452.011719 C 2245.070312 1502.441406 2302.988281 1498.429688 2305.859375 1565.808594 C 2308.171875 1620.441406 2263 1728.480469 2237.71875 1767.398438 "/>
<path fill-rule="nonzero" fill="rgb(100%, 100%, 100%)" fill-opacity="1" d="M 2237.71875 1767.398438 C 2235.871094 1770.238281 2234.121094 1772.710938 2232.511719 1774.78125 C 2196.160156 1548.011719 2103.449219 1216.050781 2087.800781 1160.75 C 2088.289062 1155.171875 2088.589844 1151.980469 2088.589844 1151.980469 C 2088.589844 1151.980469 2090.949219 1155.980469 2094.949219 1162.78125 C 2105.328125 1199.550781 2138.5 1318.578125 2171.53125 1454.011719 C 2194.949219 1550.078125 2221.371094 1667.21875 2237.71875 1767.398438 "/>
<path fill-rule="nonzero" fill="rgb(54.101562%, 54.101562%, 89.451599%)" fill-opacity="1" d="M 2867.609375 1211.039062 C 2867.421875 1211.378906 2864.378906 1216.75 2859.699219 1225.460938 C 2842.609375 1257.289062 2803.671875 1333.75 2802.671875 1371.480469 C 2801.398438 1419.878906 2758.101562 1442.789062 2736.441406 1481 C 2714.800781 1519.199219 2751.730469 1553.589844 2721.171875 1587.96875 C 2690.609375 1622.359375 2624.359375 1604.851562 2621.191406 1658.808594 C 2618.03125 1712.769531 2662.589844 1763.710938 2609.109375 1810.828125 C 2565.640625 1849.109375 2413.679688 1841.988281 2358.28125 1837.96875 C 2355.578125 1837.769531 2353.109375 1837.589844 2350.890625 1837.410156 C 2342.621094 1836.761719 2337.871094 1836.289062 2337.871094 1836.289062 L 2486.851562 1531.949219 C 2486.851562 1531.949219 2518.699219 1491.191406 2610.378906 1417.328125 C 2702.070312 1343.480469 2671.511719 1320.550781 2742.820312 1274.710938 C 2800.558594 1237.578125 2846.621094 1218.820312 2862.058594 1213.039062 C 2865.5 1211.738281 2867.421875 1211.089844 2867.609375 1211.039062 "/>
<path fill-rule="nonzero" fill="rgb(100%, 100%, 100%)" fill-opacity="1" d="M 2867.609375 1211.039062 C 2867.421875 1211.378906 2864.378906 1216.75 2859.699219 1225.460938 C 2781.539062 1317.578125 2485.75 1667.558594 2358.28125 1837.96875 C 2355.578125 1837.769531 2353.109375 1837.589844 2350.890625 1837.410156 C 2481.550781 1661.851562 2794.859375 1292.078125 2862.058594 1213.039062 C 2865.5 1211.738281 2867.421875 1211.089844 2867.609375 1211.039062 "/>
<path fill-rule="nonzero" fill="rgb(66.992188%, 66.209412%, 99.21875%)" fill-opacity="1" d="M 2680.890625 963.039062 C 2680.839844 963.21875 2679.570312 967.011719 2677.441406 973.558594 C 2666 1008.710938 2629.761719 1123.300781 2622.460938 1185.570312 C 2613.75 1259.75 2546.601562 1293.738281 2529.179688 1349.378906 C 2511.78125 1405.019531 2559.039062 1442.109375 2534.171875 1482.28125 C 2509.300781 1522.460938 2470.738281 1537.699219 2473.21875 1600.671875 C 2475.71875 1663.609375 2499.339844 1697.621094 2464.519531 1752.21875 C 2429.710938 1806.828125 2191.148438 1859.359375 2191.148438 1859.359375 C 2191.148438 1859.359375 2190.820312 1858.171875 2190.269531 1855.910156 C 2189.460938 1852.601562 2188.128906 1847.019531 2186.601562 1839.539062 C 2177.539062 1795.660156 2160.679688 1686.550781 2191.148438 1589.429688 C 2191.148438 1589.429688 2208.359375 1455.5 2309.078125 1344.230469 C 2409.808594 1232.960938 2414.769531 1134.058594 2498.089844 1076.351562 C 2566.621094 1028.910156 2646.078125 982.859375 2672.128906 968.011719 C 2677.511719 964.929688 2680.628906 963.191406 2680.890625 963.039062 "/>
<path fill-rule="nonzero" fill="rgb(100%, 100%, 100%)" fill-opacity="1" d="M 2680.890625 963.039062 C 2680.839844 963.21875 2679.570312 967.011719 2677.441406 973.558594 C 2651.988281 1006.148438 2559.019531 1127.519531 2459.371094 1287.128906 C 2365.03125 1438.21875 2247.601562 1651.71875 2190.269531 1855.910156 C 2189.460938 1852.601562 2188.128906 1847.019531 2186.601562 1839.539062 C 2208.5 1764.851562 2239.449219 1684.421875 2279.101562 1599.308594 C 2325.429688 1499.839844 2383.671875 1393.738281 2452.210938 1283.96875 C 2554.039062 1120.871094 2648.921875 997.621094 2672.128906 968.011719 C 2677.511719 964.929688 2680.628906 963.191406 2680.890625 963.039062 "/>
<path fill-rule="nonzero" fill="rgb(82.421875%, 81.639099%, 100%)" fill-opacity="1" d="M 2176.289062 1937.011719 C 2175.019531 1941.53125 2170.390625 1944.191406 2165.859375 1942.988281 C 2164.261719 1942.570312 2162.449219 1942.070312 2160.449219 1941.480469 C 2157.820312 1940.71875 2154.851562 1939.820312 2151.628906 1938.78125 C 2114.171875 1926.558594 2039.621094 1894.019531 2006.050781 1821.28125 C 1963.398438 1728.890625 1763.308594 1445.96875 1620.078125 1362.980469 C 1616.320312 1360.800781 1615.171875 1356.839844 1616.050781 1353.398438 C 1616.75 1350.679688 1618.738281 1348.269531 1621.699219 1347.378906 C 1622.488281 1347.121094 1623.359375 1346.988281 1624.300781 1346.988281 C 1772.769531 1346.25 2334.871094 1379.558594 2176.289062 1937.011719 "/>
<path fill-rule="nonzero" fill="rgb(100%, 100%, 100%)" fill-opacity="1" d="M 2160.449219 1941.480469 C 2157.820312 1940.71875 2154.851562 1939.820312 2151.628906 1938.78125 C 2066.5 1691.410156 1928.820312 1546.511719 1825.519531 1467.429688 C 1728.261719 1392.96875 1643.589844 1362.148438 1616.050781 1353.398438 C 1616.75 1350.679688 1618.738281 1348.269531 1621.699219 1347.378906 C 1652.949219 1357.648438 1735.800781 1389.328125 1830.058594 1461.488281 C 1900.179688 1515.160156 1962.859375 1580.441406 2016.390625 1655.46875 C 2076.050781 1739.101562 2124.421875 1835.160156 2160.449219 1941.480469 "/>
<path fill-rule="nonzero" fill="rgb(82.421875%, 81.639099%, 100%)" fill-opacity="1" d="M 1701.261719 3011.46875 C 1700.191406 3015.269531 1696.300781 3017.5 1692.488281 3016.5 C 1691.148438 3016.148438 1689.628906 3015.71875 1687.941406 3015.230469 C 1685.730469 3014.589844 1683.238281 3013.828125 1680.53125 3012.960938 C 1649.050781 3002.691406 1586.378906 2975.328125 1558.171875 2914.191406 C 1522.320312 2836.53125 1354.128906 2598.730469 1233.738281 2528.96875 C 1230.570312 2527.128906 1229.601562 2523.800781 1230.351562 2520.910156 C 1230.941406 2518.628906 1232.609375 2516.601562 1235.101562 2515.851562 C 1235.761719 2515.640625 1236.488281 2515.519531 1237.28125 2515.519531 C 1362.078125 2514.910156 1834.558594 2542.910156 1701.261719 3011.46875 "/>
<path fill-rule="nonzero" fill="rgb(100%, 100%, 100%)" fill-opacity="1" d="M 1687.941406 3015.230469 C 1685.730469 3014.589844 1683.238281 3013.828125 1680.53125 3012.960938 C 1608.96875 2805.03125 1493.25 2683.238281 1406.421875 2616.761719 C 1324.671875 2554.179688 1253.488281 2528.261719 1230.351562 2520.910156 C 1230.941406 2518.628906 1232.609375 2516.601562 1235.101562 2515.851562 C 1261.359375 2524.480469 1331 2551.109375 1410.230469 2611.769531 C 1469.171875 2656.878906 1521.859375 2711.75 1566.851562 2774.820312 C 1617 2845.121094 1657.660156 2925.859375 1687.941406 3015.230469 "/>
<path fill-rule="nonzero" fill="rgb(66.992188%, 66.209412%, 99.21875%)" fill-opacity="1" d="M 3767 3269.089844 L 1682.488281 3269.089844 C 1649.109375 3269.089844 1622.058594 3242.03125 1622.058594 3208.660156 L 1622.058594 1765.941406 C 1622.058594 1732.570312 1649.109375 1705.511719 1682.488281 1705.511719 L 3767 1705.511719 C 3800.378906 1705.511719 3827.429688 1732.570312 3827.429688 1765.941406 L 3827.429688 3208.660156 C 3827.429688 3242.03125 3800.378906 3269.089844 3767 3269.089844 "/>
<path fill-rule="nonzero" fill="rgb(97.264099%, 97.264099%, 100%)" fill-opacity="1" d="M 3669.941406 3161.371094 L 1779.550781 3161.371094 C 1749.941406 3161.371094 1725.941406 3137.359375 1725.941406 3107.75 L 1725.941406 1856.148438 C 1725.941406 1826.539062 1749.941406 1802.53125 1779.550781 1802.53125 L 3669.941406 1802.53125 C 3699.550781 1802.53125 3723.550781 1826.539062 3723.550781 1856.148438 L 3723.550781 3107.75 C 3723.550781 3137.359375 3699.550781 3161.371094 3669.941406 3161.371094 "/>
<path fill-rule="nonzero" fill="rgb(54.101562%, 54.101562%, 89.451599%)" fill-opacity="1" d="M 3839.371094 3291.191406 L 1596.171875 3291.191406 C 1554.46875 3291.191406 1520.660156 3257.378906 1520.660156 3215.679688 C 1520.660156 3203.101562 1530.851562 3192.910156 1543.429688 3192.910156 L 3892.109375 3192.910156 C 3904.691406 3192.910156 3914.878906 3203.101562 3914.878906 3215.679688 C 3914.878906 3257.378906 3881.070312 3291.191406 3839.371094 3291.191406 "/>
<path fill-rule="nonzero" fill="rgb(82.421875%, 81.639099%, 100%)" fill-opacity="1" d="M 2667.539062 2486.789062 L 1837.449219 2486.789062 C 1818.210938 2486.789062 1802.621094 2471.191406 1802.621094 2451.960938 L 1802.621094 1905.789062 C 1802.621094 1886.550781 1818.210938 1870.960938 1837.449219 1870.960938 L 2667.539062 1870.960938 C 2686.769531 1870.960938 2702.359375 1886.550781 2702.359375 1905.789062 L 2702.359375 2451.960938 C 2702.359375 2471.191406 2686.769531 2486.789062 2667.539062 2486.789062 "/>
<path fill-rule="nonzero" fill="rgb(89.0625%, 89.0625%, 100%)" fill-opacity="1" d="M 3624.96875 2486.789062 L 2794.878906 2486.789062 C 2775.640625 2486.789062 2760.050781 2471.191406 2760.050781 2451.960938 L 2760.050781 1905.789062 C 2760.050781 1886.550781 2775.640625 1870.960938 2794.878906 1870.960938 L 3624.96875 1870.960938 C 3644.199219 1870.960938 3659.789062 1886.550781 3659.789062 1905.789062 L 3659.789062 2451.960938 C 3659.789062 2471.191406 3644.199219 2486.789062 3624.96875 2486.789062 "/>
<path fill-rule="nonzero" fill="rgb(89.0625%, 89.0625%, 100%)" fill-opacity="1" d="M 2667.539062 3127.109375 L 1837.449219 3127.109375 C 1818.210938 3127.109375 1802.621094 3111.511719 1802.621094 3092.28125 L 1802.621094 2546.101562 C 1802.621094 2526.871094 1818.210938 2511.28125 1837.449219 2511.28125 L 2667.539062 2511.28125 C 2686.769531 2511.28125 2702.359375 2526.871094 2702.359375 2546.101562 L 2702.359375 3092.28125 C 2702.359375 3111.511719 2686.769531 3127.109375 2667.539062 3127.109375 "/>
<path fill-rule="nonzero" fill="rgb(82.421875%, 81.639099%, 100%)" fill-opacity="1" d="M 3624.96875 3120.351562 L 2794.878906 3120.351562 C 2775.640625 3120.351562 2760.050781 3104.761719 2760.050781 3085.519531 L 2760.050781 2539.351562 C 2760.050781 2520.109375 2775.640625 2504.519531 2794.878906 2504.519531 L 3624.96875 2504.519531 C 3644.199219 2504.519531 3659.789062 2520.109375 3659.789062 2539.351562 L 3659.789062 3085.519531 C 3659.789062 3104.761719 3644.199219 3120.351562 3624.96875 3120.351562 "/>
<path fill-rule="nonzero" fill="rgb(31.37207%, 32.93457%, 85.546875%)" fill-opacity="1" d="M 1309 1645.128906 C 1309 1772.039062 1206.121094 1874.921875 1079.210938 1874.921875 C 952.304688 1874.921875 849.425781 1772.039062 849.425781 1645.128906 C 849.425781 1518.21875 952.304688 1415.339844 1079.210938 1415.339844 C 1206.121094 1415.339844 1309 1518.21875 1309 1645.128906 "/>
<path fill-rule="nonzero" fill="rgb(97.264099%, 97.264099%, 100%)" fill-opacity="1" d="M 1285.511719 1645.128906 C 1285.511719 1759.058594 1193.148438 1851.429688 1079.210938 1851.429688 C 965.277344 1851.429688 872.914062 1759.058594 872.914062 1645.128906 C 872.914062 1531.191406 965.277344 1438.828125 1079.210938 1438.828125 C 1193.148438 1438.828125 1285.511719 1531.191406 1285.511719 1645.128906 "/>
<path fill-rule="nonzero" fill="rgb(31.37207%, 32.93457%, 85.546875%)" fill-opacity="1" d="M 1101.679688 1645.128906 C 1101.679688 1657.539062 1091.621094 1667.601562 1079.210938 1667.601562 C 1066.808594 1667.601562 1056.75 1657.539062 1056.75 1645.128906 C 1056.75 1632.71875 1066.808594 1622.660156 1079.210938 1622.660156 C 1091.621094 1622.660156 1101.679688 1632.71875 1101.679688 1645.128906 "/>
<path fill-rule="nonzero" fill="rgb(31.37207%, 32.93457%, 85.546875%)" fill-opacity="1" d="M 1079.210938 1649.210938 C 1074.378906 1649.210938 1070.460938 1645.289062 1070.460938 1640.460938 L 1070.460938 1534.898438 C 1070.460938 1530.070312 1074.378906 1526.148438 1079.210938 1526.148438 C 1084.050781 1526.148438 1087.96875 1530.070312 1087.96875 1534.898438 L 1087.96875 1640.460938 C 1087.96875 1645.289062 1084.050781 1649.210938 1079.210938 1649.210938 "/>
<path fill-rule="nonzero" fill="rgb(31.37207%, 32.93457%, 85.546875%)" fill-opacity="1" d="M 1203.890625 1787.339844 C 1200.320312 1790.589844 1194.78125 1790.328125 1191.53125 1786.75 L 1076.03125 1659.769531 C 1072.78125 1656.191406 1073.039062 1650.660156 1076.621094 1647.410156 C 1080.199219 1644.148438 1085.730469 1644.421875 1088.988281 1647.988281 L 1204.480469 1774.96875 C 1207.730469 1778.550781 1207.46875 1784.078125 1203.890625 1787.339844 "/>
<path fill-rule="nonzero" fill="rgb(24.705505%, 28.637695%, 78.90625%)" fill-opacity="1" d="M 2105.339844 2251.070312 C 2105.339844 2251.070312 2027.210938 2270.28125 2014.960938 2287.640625 C 2002.699219 2305 1940.398438 2486.789062 1940.398438 2486.789062 L 2519.46875 2486.789062 C 2519.46875 2486.789062 2462.28125 2292.921875 2442.871094 2282.621094 C 2423.46875 2272.320312 2345.851562 2254.960938 2345.851562 2254.960938 L 2293.941406 2246.789062 L 2105.339844 2251.070312 "/>
<path fill-rule="nonzero" fill="rgb(36.863708%, 42.358398%, 82.8125%)" fill-opacity="1" d="M 2228.351562 2276.101562 L 2192.769531 2332.058594 L 2105.339844 2251.070312 L 2159.871094 2228.191406 L 2200.648438 2231.828125 L 2228.351562 2276.101562 "/>
<path fill-rule="nonzero" fill="rgb(36.863708%, 42.358398%, 82.8125%)" fill-opacity="1" d="M 2228.75 2278.789062 L 2262.621094 2332.058594 L 2345.851562 2254.960938 L 2293.941406 2233.171875 L 2255.109375 2236.640625 L 2228.75 2278.789062 "/>
<path fill-rule="nonzero" fill="rgb(9.812927%, 4.315186%, 52.539062%)" fill-opacity="1" d="M 2125.769531 2071.378906 C 2125.769531 2071.378906 2104.320312 2041.511719 2101.25 2021.601562 C 2098.191406 2001.679688 2121.941406 1925.851562 2171.71875 1909.769531 C 2221.511719 1893.679688 2281.25 1890.621094 2305 1935.808594 C 2328.75 1981 2344.828125 2014.699219 2334.871094 2037.679688 C 2324.921875 2060.660156 2293.941406 2108.921875 2293.941406 2108.921875 C 2293.941406 2108.921875 2232.890625 2117.339844 2228.351562 2115.808594 C 2223.808594 2114.28125 2129.210938 2100.851562 2129.210938 2100.851562 L 2125.769531 2071.378906 "/>
<path fill-rule="nonzero" fill="rgb(100%, 79.6875%, 73.242188%)" fill-opacity="1" d="M 2157.769531 2203.640625 L 2157.769531 2231.128906 L 2228.75 2278.789062 L 2293.941406 2233.171875 L 2293.941406 2172.230469 C 2293.941406 2172.230469 2298.019531 2165.601562 2298.449219 2159.71875 C 2298.871094 2153.851562 2298.449219 2139.550781 2298.449219 2139.550781 L 2315.46875 2103.808594 L 2299.640625 2088.660156 C 2299.640625 2088.660156 2292.398438 2073.851562 2288.320312 2055.808594 C 2284.230469 2037.769531 2283.550781 1987.378906 2275.039062 1978.191406 C 2266.53125 1969 2178.019531 1965.601562 2166.789062 1972.058594 C 2155.550781 1978.53125 2164.75 2014.28125 2159.980469 2032.320312 C 2155.210938 2050.359375 2148.230469 2059.378906 2144.488281 2072.828125 C 2140.75 2086.28125 2141.25 2093.941406 2141.25 2093.941406 L 2141.230469 2129 L 2144.488281 2139.550781 C 2144.488281 2139.550781 2144.660156 2161.339844 2146.699219 2170.191406 C 2148.75 2179.039062 2157.769531 2186.871094 2157.769531 2186.871094 L 2161.679688 2198.449219 L 2157.769531 2203.640625 "/>
<path fill-rule="nonzero" fill="rgb(93.75%, 70.117188%, 63.867188%)" fill-opacity="1" d="M 2157.769531 2186.871094 C 2157.769531 2186.871094 2183.980469 2218.359375 2195.550781 2224.148438 C 2207.128906 2229.941406 2236.058594 2227.210938 2242.019531 2227.210938 C 2247.980469 2227.210938 2293.941406 2172.230469 2293.941406 2172.230469 L 2293.941406 2202.359375 C 2293.941406 2202.359375 2263.128906 2236.828125 2244.488281 2241.429688 C 2225.851562 2246.019531 2192.398438 2241.941406 2183.980469 2234.28125 C 2175.550781 2226.621094 2157.769531 2203.640625 2157.769531 2203.640625 L 2157.769531 2186.871094 "/>
<path fill-rule="nonzero" fill="rgb(93.75%, 70.117188%, 63.867188%)" fill-opacity="1" d="M 2140.75 2086.28125 C 2140.75 2086.28125 2133.941406 2064.828125 2128.148438 2062.28125 C 2122.359375 2059.71875 2115.550781 2078.109375 2114.019531 2087.46875 C 2112.488281 2096.828125 2132.058594 2129.851562 2135.808594 2135.300781 C 2139.550781 2140.75 2144.488281 2139.550781 2144.488281 2139.550781 C 2144.488281 2139.550781 2143.128906 2090.019531 2143.300781 2088.660156 C 2143.46875 2087.300781 2140.75 2086.28125 2140.75 2086.28125 "/>
<path fill-rule="nonzero" fill="rgb(93.75%, 70.117188%, 63.867188%)" fill-opacity="1" d="M 2302.191406 2086.28125 C 2302.191406 2086.28125 2309 2064.828125 2314.789062 2062.28125 C 2320.570312 2059.71875 2327.378906 2078.109375 2328.921875 2087.46875 C 2330.449219 2096.828125 2310.871094 2129.851562 2307.128906 2135.300781 C 2303.378906 2140.75 2298.449219 2139.550781 2298.449219 2139.550781 C 2298.449219 2139.550781 2299.808594 2090.019531 2299.640625 2088.660156 C 2299.46875 2087.300781 2302.191406 2086.28125 2302.191406 2086.28125 "/>
<path fill-rule="nonzero" fill="rgb(100%, 65.429688%, 0%)" fill-opacity="1" d="M 3280.429688 2487.921875 L 3518.621094 2487.921875 C 3518.621094 2487.921875 3520.570312 2471.300781 3500.5 2456.921875 C 3480.429688 2442.539062 3380.96875 2376.300781 3380.96875 2376.300781 L 3364.71875 2306.96875 L 3285.390625 2312.648438 L 3201.441406 2330.558594 L 3147.019531 2348.988281 C 3147.019531 2348.988281 2964.558594 2400.46875 2947.078125 2416 C 2929.609375 2431.539062 2923.128906 2487.921875 2923.128906 2487.921875 L 3281.070312 2487.921875 "/>
<path fill-rule="nonzero" fill="rgb(82.8125%, 49.021912%, 0%)" fill-opacity="1" d="M 3146.949219 2345.230469 C 3146.949219 2345.230469 3130.691406 2356.878906 3131.988281 2376.300781 C 3133.28125 2395.71875 3157.878906 2434.988281 3162.191406 2439.730469 C 3166.511719 2444.480469 3166.941406 2392.480469 3166.941406 2392.480469 L 3149.429688 2347.550781 L 3146.949219 2345.230469 "/>
<path fill-rule="nonzero" fill="rgb(82.8125%, 49.021912%, 0%)" fill-opacity="1" d="M 3324.871094 2344.371094 C 3324.871094 2344.371094 3364.71875 2312.148438 3364.71875 2306.96875 C 3364.71875 2301.789062 3304.019531 2293.738281 3304.019531 2293.738281 C 3304.019531 2293.738281 3304.300781 2327.398438 3324.871094 2344.371094 "/>
<path fill-rule="nonzero" fill="rgb(91.014099%, 56.834412%, 1.960754%)" fill-opacity="1" d="M 3234.820312 2425.921875 C 3234.820312 2425.921875 3242.019531 2429.378906 3246.339844 2446.640625 C 3250.648438 2463.898438 3251.519531 2487.921875 3251.519531 2487.921875 L 3230.371094 2487.921875 C 3230.371094 2487.921875 3200.601562 2455.699219 3201.460938 2451.820312 C 3202.320312 2447.929688 3211.820312 2429.378906 3211.820312 2429.378906 L 3234.820312 2425.921875 "/>
<path fill-rule="nonzero" fill="rgb(100%, 79.6875%, 73.242188%)" fill-opacity="1" d="M 3343.429688 2141.988281 C 3343.429688 2141.988281 3354.648438 2142.851562 3357.238281 2152.558594 C 3359.828125 2162.269531 3358.808594 2177.800781 3355.320312 2191.179688 C 3351.839844 2204.558594 3342.128906 2234.550781 3317.539062 2234.328125 C 3317.539062 2234.328125 3315.898438 2280.910156 3308.910156 2292.589844 L 3324.871094 2344.371094 C 3324.871094 2344.371094 3224.328125 2418.589844 3224.761719 2447.5 C 3225.191406 2476.410156 3230.371094 2487.921875 3230.371094 2487.921875 L 3190.960938 2487.921875 L 3168.230469 2451.101562 C 3168.230469 2451.101562 3152.121094 2397.878906 3152.121094 2397.011719 C 3152.121094 2396.148438 3159.03125 2360.191406 3159.03125 2360.191406 L 3146.949219 2345.230469 C 3146.949219 2345.230469 3113.859375 2308.121094 3100.921875 2271.871094 C 3087.96875 2235.628906 3082.359375 2200.238281 3087.96875 2184.710938 C 3093.578125 2169.171875 3093.578125 2140.691406 3093.578125 2140.691406 L 3090.558594 2091.070312 C 3090.558594 2091.070312 3092.289062 2043.601562 3094.011719 2041.878906 C 3095.738281 2040.148438 3138.25 2015.121094 3138.25 2015.121094 L 3211.378906 2028.929688 L 3302.871094 2041.011719 L 3332.640625 2082.011719 L 3343.429688 2141.988281 "/>
<path fill-rule="nonzero" fill="rgb(9.812927%, 4.315186%, 52.539062%)" fill-opacity="1" d="M 3093.578125 2140.691406 C 3093.578125 2140.691406 3094.011719 2087.191406 3097.898438 2070.359375 C 3101.78125 2053.53125 3122.671875 2038.421875 3144.371094 2044.03125 C 3166.078125 2049.640625 3211.378906 2046.191406 3236.839844 2045.328125 C 3262.300781 2044.46875 3276.109375 2041.878906 3282.578125 2062.589844 C 3289.058594 2083.300781 3283.878906 2099.269531 3289.488281 2112.210938 C 3295.101562 2125.160156 3302.429688 2125.160156 3307.609375 2140.691406 C 3312.789062 2156.230469 3312.359375 2212.761719 3312.359375 2212.761719 C 3312.359375 2212.761719 3316.671875 2171.761719 3323.578125 2159.679688 C 3330.480469 2147.601562 3343.429688 2141.988281 3343.429688 2141.988281 C 3343.429688 2141.988281 3361.121094 2082.011719 3353.351562 2049.640625 C 3351.949219 2043.78125 3349.589844 2039.398438 3346.550781 2036.070312 C 3330.78125 2018.730469 3308.699219 2026.730469 3288.628906 2013.398438 C 3271.480469 2002 3277.570312 1988.28125 3263.171875 1970.679688 C 3240.519531 1942.988281 3191.019531 1934.859375 3151.839844 1948.238281 C 3095.148438 1967.589844 3079.039062 2025.480469 3076.320312 2036.269531 C 3062.828125 2089.671875 3088.5 2132.558594 3093.578125 2140.691406 "/>
<path fill-rule="nonzero" fill="rgb(9.812927%, 4.315186%, 52.539062%)" fill-opacity="1" d="M 3138.03125 2159.390625 C 3138.03125 2166.539062 3134.101562 2172.339844 3129.25 2172.339844 C 3124.410156 2172.339844 3120.480469 2166.539062 3120.480469 2159.390625 C 3120.480469 2152.238281 3124.410156 2146.449219 3129.25 2146.449219 C 3134.101562 2146.449219 3138.03125 2152.238281 3138.03125 2159.390625 "/>
<path fill-rule="nonzero" fill="rgb(9.812927%, 4.315186%, 52.539062%)" fill-opacity="1" d="M 3243.601562 2159.390625 C 3243.601562 2166.539062 3239.679688 2172.339844 3234.828125 2172.339844 C 3229.980469 2172.339844 3226.058594 2166.539062 3226.058594 2159.390625 C 3226.058594 2152.238281 3229.980469 2146.449219 3234.828125 2146.449219 C 3239.679688 2146.449219 3243.601562 2152.238281 3243.601562 2159.390625 "/>
<path fill-rule="nonzero" fill="rgb(9.812927%, 4.315186%, 52.539062%)" fill-opacity="1" d="M 3144.019531 2140.269531 C 3125.949219 2126.941406 3108.769531 2130.871094 3101.96875 2133.308594 C 3100.179688 2133.949219 3098.191406 2133.171875 3097.320312 2131.480469 C 3096.25 2129.429688 3097.25 2126.921875 3099.429688 2126.140625 C 3107.738281 2123.179688 3127.710938 2118.769531 3148.511719 2134.128906 C 3150.269531 2135.429688 3150.578125 2137.949219 3149.171875 2139.628906 L 3149.171875 2139.640625 C 3147.890625 2141.171875 3145.628906 2141.460938 3144.019531 2140.269531 "/>
<path fill-rule="nonzero" fill="rgb(9.812927%, 4.315186%, 52.539062%)" fill-opacity="1" d="M 3211.101562 2140.511719 C 3235.828125 2128.480469 3258.589844 2133.390625 3267.558594 2136.210938 C 3269.921875 2136.949219 3272.601562 2136.308594 3273.851562 2134.699219 C 3275.371094 2132.738281 3274.148438 2130.210938 3271.269531 2129.308594 C 3260.308594 2125.890625 3233.839844 2120.328125 3205.390625 2134.179688 C 3202.980469 2135.359375 3202.449219 2137.820312 3204.25 2139.558594 L 3204.261719 2139.570312 C 3205.898438 2141.160156 3208.898438 2141.578125 3211.101562 2140.511719 "/>
<path fill-rule="nonzero" fill="rgb(93.75%, 70.117188%, 63.867188%)" fill-opacity="1" d="M 3173.238281 2239.988281 C 3165.628906 2239.988281 3159.339844 2237.230469 3154.75 2231.808594 C 3151.871094 2228.410156 3149.511719 2227.699219 3147.230469 2227.011719 C 3144.238281 2226.121094 3141.140625 2225.191406 3139.050781 2219.050781 C 3136.269531 2210.910156 3141.359375 2204.589844 3144.261719 2201.800781 C 3145.171875 2200.929688 3146.648438 2201.070312 3147.398438 2202.089844 C 3148.019531 2202.941406 3147.929688 2204.128906 3147.171875 2204.859375 C 3144.949219 2206.988281 3141.03125 2211.78125 3143.050781 2217.679688 C 3144.441406 2221.761719 3145.859375 2222.191406 3148.449219 2222.96875 C 3150.910156 2223.710938 3154.289062 2224.71875 3157.980469 2229.078125 C 3163.140625 2235.191406 3170.789062 2237.128906 3180.710938 2234.859375 C 3183.039062 2234.328125 3183.871094 2233.449219 3185.019531 2232.238281 C 3187.648438 2229.460938 3190.410156 2227.28125 3199.800781 2226.621094 C 3205.441406 2226.21875 3209.320312 2224.429688 3211.011719 2221.441406 C 3212.699219 2218.429688 3212.308594 2214.039062 3209.941406 2209.398438 C 3207.398438 2204.460938 3205.070312 2202.121094 3203.710938 2201.070312 C 3203 2200.519531 3202.71875 2199.601562 3203 2198.75 L 3203.011719 2198.71875 C 3203.460938 2197.359375 3205.121094 2196.820312 3206.25 2197.691406 C 3208.140625 2199.140625 3210.878906 2201.980469 3213.699219 2207.480469 C 3216.730469 2213.398438 3217.089844 2219.25 3214.691406 2223.511719 C 3213 2226.5 3209.101562 2230.199219 3200.101562 2230.828125 C 3191.601562 2231.429688 3189.808594 2233.308594 3188.089844 2235.140625 C 3186.75 2236.558594 3185.230469 2238.160156 3181.648438 2238.980469 C 3178.699219 2239.648438 3175.890625 2239.988281 3173.238281 2239.988281 "/>
<path fill-rule="nonzero" fill="rgb(100%, 100%, 100%)" fill-opacity="1" d="M 3140.398438 2258.929688 L 3226.921875 2260.011719 C 3226.921875 2260.011719 3220.660156 2282.011719 3178.808594 2278.988281 C 3136.949219 2275.96875 3140.398438 2258.929688 3140.398438 2258.929688 "/>
<path fill-rule="nonzero" fill="rgb(74.804688%, 52.539062%, 37.646484%)" fill-opacity="1" d="M 3332.859375 2168.53125 C 3332.859375 2168.53125 3347.738281 2171.328125 3347.960938 2184.921875 C 3348.171875 2198.519531 3327.460938 2208.441406 3327.460938 2208.441406 C 3327.460938 2208.441406 3341.921875 2197.871094 3341.699219 2186.871094 C 3341.488281 2175.859375 3332.859375 2168.53125 3332.859375 2168.53125 "/>
<path fill-rule="nonzero" fill="rgb(74.804688%, 52.539062%, 37.646484%)" fill-opacity="1" d="M 3342.351562 2148.25 C 3342.351562 2148.25 3348.609375 2145.011719 3352.269531 2152.988281 C 3355.941406 2160.96875 3355.078125 2179.75 3352.269531 2187.511719 C 3349.46875 2195.28125 3347.960938 2199.601562 3347.960938 2199.601562 C 3347.960938 2199.601562 3359.828125 2152.78125 3342.351562 2148.25 "/>
<path fill-rule="nonzero" fill="rgb(93.75%, 70.117188%, 63.867188%)" fill-opacity="1" d="M 3146.949219 2345.230469 C 3146.949219 2345.230469 3146.96875 2346.609375 3147.019531 2348.988281 C 3147.308594 2361.039062 3148.429688 2398.949219 3151.550781 2416 C 3155.289062 2436.429688 3180.890625 2487.921875 3180.890625 2487.921875 L 3190.960938 2487.921875 C 3190.960938 2487.921875 3182.621094 2468.070312 3172.839844 2443.910156 C 3163.050781 2419.738281 3157.011719 2392.410156 3162.480469 2382.628906 C 3167.949219 2372.851562 3209.949219 2375.148438 3244.75 2361.050781 C 3279.558594 2346.960938 3308.910156 2292.589844 3308.910156 2292.589844 C 3308.910156 2292.589844 3251.058594 2346.089844 3216.261719 2353.570312 C 3181.46875 2361.050781 3153.851562 2353.570312 3146.949219 2345.230469 "/>
<path fill-rule="nonzero" fill="rgb(91.014099%, 56.834412%, 1.960754%)" fill-opacity="1" d="M 3251.519531 2487.921875 L 3280.429688 2487.921875 L 3380.96875 2376.300781 C 3380.96875 2376.300781 3280 2474.691406 3273.519531 2480.300781 C 3267.050781 2485.910156 3248.058594 2480.730469 3248.058594 2480.730469 L 3251.519531 2487.921875 "/>
<path fill-rule="nonzero" fill="rgb(91.014099%, 56.834412%, 1.960754%)" fill-opacity="1" d="M 3150.539062 2439.300781 C 3150.109375 2438.011719 3132.421875 2399.171875 3128.53125 2397.011719 C 3124.648438 2394.859375 3120.328125 2400.898438 3121.199219 2408.671875 C 3122.058594 2416.429688 3135.808594 2471.230469 3135.808594 2471.230469 C 3135.808594 2471.230469 3136.160156 2449.660156 3140.328125 2443.191406 C 3144.5 2436.710938 3150.539062 2439.300781 3150.539062 2439.300781 "/>
<path fill-rule="nonzero" fill="rgb(100%, 65.429688%, 0%)" fill-opacity="1" d="M 2146.058594 2944.320312 C 2146.058594 2944.320312 2094.089844 2966.230469 2075.558594 2982.5 C 2057.039062 2998.769531 1983.828125 3127.109375 1983.828125 3127.109375 L 2558.640625 3127.109375 C 2558.640625 3127.109375 2489.050781 2959.449219 2459.21875 2944.320312 C 2429.398438 2929.179688 2315.519531 2901.761719 2315.519531 2901.761719 L 2310.699219 2896.339844 L 2276.101562 2875.121094 L 2146.058594 2944.320312 "/>
<path fill-rule="nonzero" fill="rgb(100%, 79.6875%, 73.242188%)" fill-opacity="1" d="M 2199.828125 3038.539062 L 2183.570312 3054.351562 L 2146.058594 2944.320312 C 2146.058594 2944.320312 2144.480469 2946.949219 2132.839844 2937.609375 C 2121.199219 2928.269531 2094.988281 2894.230469 2083.25 2878.261719 C 2071.5 2862.300781 2068.78125 2820.421875 2071.039062 2768.300781 C 2071.039062 2768.300781 2061.550781 2755.050781 2063.058594 2741.789062 C 2064.570312 2728.539062 2072.398438 2669.191406 2072.398438 2669.191406 L 2131.371094 2642.980469 L 2242.910156 2662.859375 L 2275.75 2695.398438 L 2295.25 2750.101562 C 2295.25 2750.101562 2302.578125 2750.828125 2304.679688 2776.140625 C 2306.78125 2801.441406 2296.839844 2825.878906 2289.609375 2828.121094 C 2282.378906 2830.359375 2276.351562 2829.761719 2276.351562 2829.761719 C 2276.351562 2829.761719 2278.660156 2878.878906 2273.039062 2893.03125 C 2267.421875 2907.171875 2253.160156 2927.371094 2253.160156 2927.371094 L 2230.558594 2970.449219 L 2218.210938 3003.589844 L 2217 3009.128906 L 2199.828125 3038.539062 "/>
<path fill-rule="nonzero" fill="rgb(9.812927%, 4.315186%, 52.539062%)" fill-opacity="1" d="M 2071.039062 2768.300781 C 2071.039062 2768.300781 2063.808594 2743.449219 2076.011719 2714.53125 C 2088.21875 2685.609375 2086.410156 2676.570312 2102.21875 2671.148438 C 2118.039062 2665.71875 2216.101562 2665.71875 2230.109375 2674.761719 C 2244.121094 2683.800781 2244.121094 2741.191406 2252.710938 2751.128906 C 2261.289062 2761.070312 2267.171875 2793.160156 2267.171875 2793.160156 C 2267.171875 2793.160156 2270.328125 2762.429688 2277.558594 2757.460938 C 2284.789062 2752.488281 2290.660156 2753.839844 2296.988281 2748.871094 C 2303.320312 2743.898438 2310.550781 2697.808594 2296.988281 2656.679688 C 2283.429688 2615.558594 2242.761719 2596.128906 2202.539062 2594.78125 C 2162.328125 2593.421875 2100.230469 2589.800781 2068.921875 2620.988281 C 2037.601562 2652.171875 2052.96875 2745.710938 2071.039062 2768.300781 "/>
<path fill-rule="nonzero" fill="rgb(9.812927%, 4.315186%, 52.539062%)" fill-opacity="1" d="M 2119.710938 2781.449219 C 2119.710938 2787.910156 2115.921875 2793.160156 2111.25 2793.160156 C 2106.578125 2793.160156 2102.789062 2787.910156 2102.789062 2781.449219 C 2102.789062 2774.980469 2106.578125 2769.738281 2111.25 2769.738281 C 2115.921875 2769.738281 2119.710938 2774.980469 2119.710938 2781.449219 "/>
<path fill-rule="nonzero" fill="rgb(9.812927%, 4.315186%, 52.539062%)" fill-opacity="1" d="M 2203.710938 2777.839844 C 2203.710938 2784.300781 2199.921875 2789.550781 2195.25 2789.550781 C 2190.578125 2789.550781 2186.789062 2784.300781 2186.789062 2777.839844 C 2186.789062 2771.371094 2190.578125 2766.128906 2195.25 2766.128906 C 2199.921875 2766.128906 2203.710938 2771.371094 2203.710938 2777.839844 "/>
<path fill-rule="nonzero" fill="rgb(9.812927%, 4.315186%, 52.539062%)" fill-opacity="1" d="M 2129.289062 2770.929688 C 2112.039062 2757.710938 2090.640625 2764.738281 2084.28125 2767.300781 C 2083.210938 2767.730469 2082 2767.261719 2081.488281 2766.230469 C 2080.910156 2765.078125 2081.441406 2763.679688 2082.640625 2763.199219 C 2089.769531 2760.339844 2113.011719 2752.859375 2131.980469 2767.410156 C 2132.980469 2768.179688 2133.128906 2769.648438 2132.308594 2770.609375 C 2131.539062 2771.5 2130.21875 2771.640625 2129.289062 2770.929688 "/>
<path fill-rule="nonzero" fill="rgb(9.812927%, 4.315186%, 52.539062%)" fill-opacity="1" d="M 2175.660156 2764.601562 C 2192.898438 2751.378906 2214.300781 2758.410156 2220.660156 2760.96875 C 2221.730469 2761.398438 2222.941406 2760.929688 2223.449219 2759.898438 C 2224.03125 2758.75 2223.5 2757.351562 2222.300781 2756.871094 C 2215.171875 2754.011719 2191.941406 2746.53125 2172.96875 2761.078125 C 2171.960938 2761.851562 2171.808594 2763.320312 2172.628906 2764.28125 L 2172.640625 2764.28125 C 2173.398438 2765.171875 2174.71875 2765.308594 2175.660156 2764.601562 "/>
<path fill-rule="nonzero" fill="rgb(93.75%, 70.117188%, 63.867188%)" fill-opacity="1" d="M 2142.121094 2845.289062 C 2139.640625 2845.289062 2137.671875 2844.710938 2136.429688 2843.261719 C 2135.019531 2841.621094 2132.820312 2840.890625 2130.261719 2840.039062 C 2127.210938 2839.03125 2123.761719 2837.878906 2121.078125 2834.851562 C 2116.410156 2829.550781 2124.890625 2818.789062 2128.628906 2814.539062 C 2129.289062 2813.789062 2130.441406 2813.730469 2131.171875 2814.421875 C 2131.871094 2815.070312 2131.921875 2816.148438 2131.289062 2816.871094 C 2126.640625 2822.191406 2121.558594 2830.039062 2123.738281 2832.511719 C 2125.78125 2834.828125 2128.5 2835.730469 2131.371094 2836.679688 C 2134.179688 2837.609375 2137.070312 2838.570312 2139.121094 2840.960938 C 2141.078125 2843.25 2151.5 2840.078125 2155.949219 2838.71875 C 2158.160156 2838.050781 2159.898438 2837.519531 2161 2837.351562 C 2162.109375 2837.179688 2163.539062 2837.320312 2165.339844 2837.5 C 2168.769531 2837.851562 2173.46875 2838.320312 2175.828125 2836.25 C 2176.949219 2835.261719 2177.519531 2833.710938 2177.578125 2831.519531 C 2177.800781 2823.050781 2170.421875 2816.480469 2167.351562 2814.121094 C 2166.621094 2813.558594 2166.449219 2812.539062 2166.949219 2811.761719 C 2167.511719 2810.890625 2168.699219 2810.679688 2169.519531 2811.320312 C 2173.078125 2814.039062 2181.378906 2821.488281 2181.121094 2831.609375 C 2181.039062 2834.800781 2180.039062 2837.25 2178.171875 2838.898438 C 2174.648438 2842 2169.070312 2841.441406 2164.988281 2841.03125 C 2163.558594 2840.878906 2162.199219 2840.75 2161.539062 2840.851562 C 2160.691406 2840.980469 2158.96875 2841.5 2156.980469 2842.109375 C 2151.261719 2843.851562 2146.039062 2845.289062 2142.121094 2845.289062 "/>
<path fill-rule="nonzero" fill="rgb(100%, 100%, 100%)" fill-opacity="1" d="M 2127.300781 2870.660156 C 2127.300781 2870.660156 2149.671875 2871.558594 2164.589844 2870.660156 C 2179.5 2869.75 2191.46875 2864.78125 2191.46875 2864.78125 C 2191.46875 2864.78125 2177.691406 2883.761719 2157.808594 2885.339844 C 2137.921875 2886.921875 2127.300781 2870.660156 2127.300781 2870.660156 "/>
<path fill-rule="nonzero" fill="rgb(93.75%, 70.117188%, 63.867188%)" fill-opacity="1" d="M 2294.960938 2758.71875 C 2294.960938 2758.71875 2300.609375 2762.71875 2301.738281 2771.378906 C 2302.871094 2780.050781 2297.21875 2787.148438 2294.960938 2794.898438 C 2292.699219 2802.648438 2288.628906 2811.011719 2284.558594 2806.039062 C 2280.5 2801.058594 2278.691406 2786.621094 2281.171875 2780.511719 C 2283.660156 2774.398438 2284.109375 2783.039062 2289.761719 2783.128906 C 2295.410156 2783.210938 2294.960938 2758.71875 2294.960938 2758.71875 "/>
<path fill-rule="nonzero" fill="rgb(93.75%, 70.117188%, 63.867188%)" fill-opacity="1" d="M 2146.058594 2944.320312 C 2146.058594 2944.320312 2188.078125 2950.871094 2219.269531 2938.671875 C 2250.449219 2926.460938 2273.039062 2893.03125 2273.039062 2893.03125 C 2273.039062 2893.03125 2257.21875 2933.699219 2245.929688 2956.738281 C 2234.628906 2979.789062 2199.828125 3038.539062 2199.828125 3038.539062 C 2199.828125 3038.539062 2224.238281 3001.929688 2217.460938 2981.140625 C 2210.679688 2960.359375 2159.621094 2973.011719 2146.058594 2944.320312 "/>
<path fill-rule="nonzero" fill="rgb(91.014099%, 56.834412%, 1.960754%)" fill-opacity="1" d="M 2222.601562 2999.378906 C 2222.601562 2999.378906 2235.988281 2972.261719 2260.390625 2984.308594 C 2284.789062 2996.359375 2286.898438 2999.378906 2286.898438 2999.378906 C 2286.898438 2999.378906 2292.921875 2978.878906 2300.148438 2955.078125 C 2307.378906 2931.289062 2310.699219 2896.339844 2310.699219 2896.339844 L 2315.519531 2901.761719 C 2315.519531 2901.761719 2309.789062 2975.269531 2289.308594 3006.898438 C 2289.308594 3006.898438 2250.789062 2971.378906 2222.601562 2999.378906 "/>
<path fill-rule="nonzero" fill="rgb(91.014099%, 56.834412%, 1.960754%)" fill-opacity="1" d="M 2183.570312 3054.351562 L 2194.410156 3079.210938 L 2087.308594 3021.359375 L 2130.238281 2961.710938 L 2075.558594 3026.789062 L 2203.898438 3088.238281 L 2183.570312 3054.351562 "/>
<path fill-rule="nonzero" fill="rgb(66.992188%, 66.209412%, 99.21875%)" fill-opacity="1" d="M 2972.621094 3120.351562 L 2892.929688 3120.351562 C 2892.929688 3120.351562 2903.378906 3052.410156 2928.640625 3041.089844 C 2953.898438 3029.769531 2989.609375 3021.058594 2989.609375 3021.058594 C 2989.609375 3021.058594 3032.28125 2967.929688 3034.898438 2962.699219 C 3037.511719 2957.480469 3088.460938 2870.378906 3088.460938 2870.378906 L 3224.769531 2911.308594 L 3303.890625 2939.179688 L 3404.421875 2977.941406 C 3404.421875 2977.941406 3466.039062 2987.960938 3495.648438 3028.898438 C 3525.261719 3069.828125 3534.851562 3120.351562 3534.851562 3120.351562 L 2972.621094 3120.351562 "/>
<path fill-rule="nonzero" fill="rgb(54.492188%, 54.492188%, 93.75%)" fill-opacity="1" d="M 3078.878906 3120.351562 L 2972.621094 3120.351562 C 2972.621094 3120.351562 2969.140625 3109.03125 2995.699219 3102.058594 C 3022.269531 3095.089844 3025.75 3105.539062 3032.28125 3111.210938 C 3038.820312 3116.871094 3081.5 3115.558594 3081.5 3115.558594 L 3088.460938 3114.691406 L 3078.878906 3120.351562 "/>
<path fill-rule="nonzero" fill="rgb(54.492188%, 54.492188%, 93.75%)" fill-opacity="1" d="M 3333.648438 3120.351562 C 3333.648438 3120.351562 3333.648438 3057.640625 3325.808594 3028.898438 C 3317.96875 3000.148438 3312.308594 2985.351562 3312.738281 2971.851562 C 3313.179688 2958.351562 3312.71875 2950.941406 3312.71875 2950.941406 L 3303.890625 2950.941406 C 3303.890625 2950.941406 3306.648438 2970.539062 3308.390625 2985.78125 C 3310.128906 3001.03125 3319.710938 3028.460938 3323.199219 3046.101562 C 3326.679688 3063.738281 3329 3117.929688 3329 3117.929688 L 3333.648438 3120.351562 "/>
<path fill-rule="nonzero" fill="rgb(54.492188%, 54.492188%, 93.75%)" fill-opacity="1" d="M 3232.21875 3073.960938 C 3232.21875 3073.960938 3249.160156 3070.699219 3264.398438 3081.589844 C 3279.648438 3092.480469 3333.648438 3120.351562 3333.648438 3120.351562 L 3321.019531 3120.351562 C 3321.019531 3120.351562 3280.949219 3100.75 3261.351562 3091.609375 C 3241.761719 3082.460938 3215.859375 3079.78125 3215.859375 3079.78125 L 3232.21875 3073.960938 "/>
<path fill-rule="nonzero" fill="rgb(100%, 79.6875%, 73.242188%)" fill-opacity="1" d="M 3109.800781 2959 L 3060.160156 2919.808594 L 3078.878906 2751.730469 L 3138.800781 2663.949219 L 3240.449219 2643.050781 L 3319.710938 2702.28125 L 3346.710938 2786.75 L 3389.390625 2806.789062 L 3389.390625 2895.640625 L 3338 2934.828125 L 3286.828125 2959 L 3255.121094 2985.089844 L 3192.109375 3028.898438 C 3192.109375 3028.898438 3138.699219 3017.789062 3139.28125 3015.828125 C 3139.851562 3013.871094 3109.800781 2959 3109.800781 2959 "/>
<path fill-rule="nonzero" fill="rgb(100%, 79.6875%, 73.242188%)" fill-opacity="1" d="M 3078.878906 3084.199219 L 3078.878906 3120.351562 L 3209.96875 3120.351562 L 3211.710938 3109.898438 L 3226.300781 3077.449219 L 3247.199219 3038.480469 L 3265.488281 3001.03125 L 3275.941406 2971.851562 L 3261.570312 2975.550781 L 3233.921875 2978.601562 L 3191.019531 2992.53125 C 3191.019531 2992.53125 3179.921875 3001.679688 3159.878906 2997.109375 C 3139.851562 2992.53125 3112.851562 2982.300781 3112.851562 2982.300781 L 3106.320312 2996.890625 L 3093.691406 3031.730469 L 3078.878906 3049.371094 L 3078.878906 3084.199219 "/>
<path fill-rule="nonzero" fill="rgb(9.812927%, 4.315186%, 52.539062%)" fill-opacity="1" d="M 3081.351562 2821.601562 C 3081.351562 2821.601562 3091.511719 2758.449219 3100.660156 2748 C 3109.800781 2737.550781 3111.109375 2712.730469 3122.429688 2700.101562 C 3133.75 2687.46875 3153.351562 2678.320312 3182.089844 2677.890625 C 3210.839844 2677.449219 3238.710938 2683.980469 3262.660156 2701.398438 C 3286.609375 2718.820312 3297.941406 2774.789062 3306.429688 2798.300781 C 3314.921875 2821.820312 3306.429688 2881.921875 3306.429688 2881.921875 C 3306.429688 2881.921875 3321.019531 2856.878906 3335.390625 2847.730469 C 3349.761719 2838.589844 3356.730469 2822.910156 3357.601562 2821.601562 C 3358.46875 2820.289062 3368.488281 2813.761719 3368.921875 2831.621094 C 3369.359375 2849.46875 3365 2871.679688 3350.199219 2883.878906 C 3335.390625 2896.070312 3313.609375 2906.960938 3306.210938 2906.519531 C 3298.808594 2906.089844 3298.808594 2906.089844 3298.808594 2906.089844 C 3298.808594 2906.089844 3293.148438 2939.179688 3290.96875 2942.230469 C 3288.789062 2945.28125 3280.519531 2950.941406 3280.519531 2950.941406 L 3279.210938 2964.441406 C 3279.210938 2964.441406 3343.660156 2960.308594 3404.421875 2977.941406 C 3404.421875 2977.941406 3457.328125 2861.671875 3404.421875 2751.921875 C 3351.5 2642.179688 3295.320312 2616.050781 3215.628906 2614.738281 C 3135.929688 2613.429688 3081.058594 2673.53125 3067.121094 2725.789062 C 3053.191406 2778.050781 3062.769531 2853.828125 3034.03125 2888.671875 C 3005.28125 2923.511719 2966.960938 2952.25 2989.609375 3021.058594 C 2989.609375 3021.058594 3029.449219 3015.828125 3051.660156 3000.148438 C 3073.871094 2984.480469 3093.46875 2964.230469 3109.800781 2959 C 3109.800781 2959 3109.800781 2952.828125 3106.609375 2947.308594 C 3103.421875 2941.800781 3085.710938 2910.148438 3081.929688 2881.410156 C 3078.160156 2852.671875 3081.351562 2821.601562 3081.351562 2821.601562 "/>
<path fill-rule="nonzero" fill="rgb(9.812927%, 4.315186%, 52.539062%)" fill-opacity="1" d="M 3143.859375 2793.828125 C 3142.308594 2800.71875 3137.378906 2805.46875 3132.839844 2804.449219 C 3128.300781 2803.429688 3125.878906 2797.03125 3127.429688 2790.140625 C 3128.96875 2783.261719 3133.910156 2778.5 3138.441406 2779.519531 C 3142.980469 2780.539062 3145.398438 2786.949219 3143.859375 2793.828125 "/>
<path fill-rule="nonzero" fill="rgb(9.812927%, 4.315186%, 52.539062%)" fill-opacity="1" d="M 3243.441406 2813.289062 C 3241.890625 2820.171875 3236.960938 2824.921875 3232.421875 2823.898438 C 3227.890625 2822.878906 3225.460938 2816.480469 3227.011719 2809.589844 C 3228.558594 2802.710938 3233.488281 2797.960938 3238.03125 2798.980469 C 3242.558594 2800 3244.988281 2806.398438 3243.441406 2813.289062 "/>
<path fill-rule="nonzero" fill="rgb(9.812927%, 4.315186%, 52.539062%)" fill-opacity="1" d="M 3162.789062 2774.21875 C 3141.628906 2757.429688 3120.878906 2758.78125 3113.011719 2760.121094 C 3111.109375 2760.441406 3109.269531 2759.269531 3108.71875 2757.421875 C 3108.058594 2755.210938 3109.488281 2752.929688 3111.761719 2752.550781 C 3121.058594 2751 3144.21875 2749.679688 3167.578125 2768.21875 C 3169.300781 2769.578125 3169.550781 2772.101562 3168.101562 2773.761719 L 3168.101562 2773.769531 C 3166.738281 2775.320312 3164.410156 2775.511719 3162.789062 2774.21875 "/>
<path fill-rule="nonzero" fill="rgb(9.812927%, 4.315186%, 52.539062%)" fill-opacity="1" d="M 3271.960938 2797.570312 C 3250.789062 2780.769531 3230.039062 2782.121094 3222.171875 2783.460938 C 3220.269531 2783.78125 3218.429688 2782.621094 3217.878906 2780.769531 C 3217.230469 2778.558594 3218.648438 2776.28125 3220.929688 2775.898438 C 3230.230469 2774.339844 3253.378906 2773.019531 3276.738281 2791.558594 C 3278.460938 2792.929688 3278.710938 2795.449219 3277.269531 2797.101562 L 3277.261719 2797.109375 C 3275.910156 2798.671875 3273.578125 2798.851562 3271.960938 2797.570312 "/>
<path fill-rule="nonzero" fill="rgb(93.75%, 70.117188%, 63.867188%)" fill-opacity="1" d="M 3199.539062 2876.890625 C 3196.261719 2876.890625 3192.878906 2875.519531 3189.898438 2874.308594 C 3186.148438 2872.78125 3182.601562 2871.339844 3180.148438 2872.570312 C 3170.449219 2877.421875 3163.371094 2870.351562 3159.96875 2866.949219 C 3158.609375 2865.589844 3156.488281 2865.230469 3154.03125 2864.808594 C 3149.691406 2864.078125 3144.289062 2863.171875 3140.460938 2856.320312 C 3134.960938 2846.46875 3150.140625 2835.601562 3155.910156 2831.941406 C 3156.929688 2831.289062 3158.289062 2831.628906 3158.890625 2832.679688 L 3158.898438 2832.679688 C 3159.460938 2833.660156 3159.171875 2834.921875 3158.210938 2835.539062 C 3152.140625 2839.429688 3140.871094 2848.308594 3144.179688 2854.238281 C 3147.011719 2859.300781 3150.769531 2859.941406 3154.738281 2860.609375 C 3157.660156 2861.101562 3160.671875 2861.609375 3162.988281 2863.929688 C 3168.109375 2869.058594 3172.449219 2871.648438 3178.238281 2868.761719 C 3182.421875 2866.671875 3187.039062 2868.539062 3191.511719 2870.359375 C 3197.210938 2872.679688 3200.851562 2873.929688 3203.75 2870.679688 C 3208.25 2865.640625 3202.550781 2854.269531 3198.910156 2848.609375 C 3198.289062 2847.660156 3198.550781 2846.390625 3199.46875 2845.730469 C 3200.460938 2845.03125 3201.839844 2845.28125 3202.488281 2846.300781 C 3205.890625 2851.558594 3213.871094 2865.738281 3206.929688 2873.519531 C 3204.699219 2876.03125 3202.148438 2876.890625 3199.539062 2876.890625 "/>
<path fill-rule="nonzero" fill="rgb(100%, 100%, 100%)" fill-opacity="1" d="M 3130.050781 2889.96875 C 3130.050781 2889.96875 3159.449219 2900.859375 3184.488281 2903.261719 C 3209.53125 2905.648438 3219.980469 2904.558594 3219.980469 2904.558594 C 3219.980469 2904.558594 3203.648438 2926.558594 3171.421875 2922.640625 C 3139.199219 2918.71875 3131.140625 2902.601562 3130.050781 2889.96875 "/>
<path fill-rule="nonzero" fill="rgb(93.75%, 70.117188%, 63.867188%)" fill-opacity="1" d="M 3109.800781 2959 C 3109.800781 2959 3119.820312 2980.121094 3159.449219 2989.699219 C 3199.078125 2999.28125 3280.519531 2950.941406 3280.519531 2950.941406 L 3279.210938 2964.441406 C 3279.210938 2964.441406 3282.261719 2980.121094 3270.5 3004.941406 C 3258.738281 3029.769531 3223.03125 3088.121094 3219.980469 3096.828125 C 3216.929688 3105.539062 3217.808594 3120.351562 3217.808594 3120.351562 L 3166.851562 3120.351562 C 3166.851562 3120.351562 3205.910156 3120.351562 3209.679688 3102.5 C 3213.449219 3084.640625 3218.238281 3070.699219 3226.078125 3058.511719 C 3233.921875 3046.320312 3263.96875 3005.820312 3263.96875 2994.488281 C 3263.96875 2983.171875 3248.730469 2981.859375 3232.179688 2990.140625 C 3215.628906 2998.410156 3185.140625 3010.609375 3163.371094 3006.25 C 3141.589844 3001.898438 3118.078125 2985.351562 3113.289062 2988.398438 C 3108.5 2991.441406 3111.539062 3063.300781 3111.539062 3063.300781 C 3111.539062 3063.300781 3113.71875 3043.269531 3101.53125 3035.648438 C 3089.328125 3028.03125 3078.878906 3084.199219 3078.878906 3084.199219 C 3078.878906 3084.199219 3072.351562 3038.910156 3088.460938 3016.699219 C 3104.578125 2994.488281 3111.539062 2990.140625 3109.800781 2959 "/>
<path fill-rule="nonzero" fill="rgb(54.101562%, 54.101562%, 89.451599%)" fill-opacity="1" d="M 478.070312 3092.648438 L 507.527344 2963.089844 L 609.664062 3019.710938 Z M 749.863281 2961.261719 L 780.273438 3095.011719 L 644.421875 3019.710938 Z M 785.289062 3117.050781 L 824.882812 3291.191406 L 839.722656 3291.191406 L 755.671875 2837.761719 L 723.300781 2844.429688 L 745.976562 2944.148438 L 627.042969 3010.070312 L 511.417969 2945.980469 L 534.511719 2844.429688 L 502.140625 2837.761719 L 418.089844 3291.191406 L 432.929688 3291.191406 L 473.058594 3114.691406 L 627.042969 3029.339844 L 785.289062 3117.050781 "/>
<path fill-rule="nonzero" fill="rgb(82.421875%, 81.639099%, 100%)" fill-opacity="1" d="M 495.953125 2366.558594 C 467.109375 2366.558594 443.722656 2389.941406 443.722656 2418.789062 L 443.722656 2803.980469 C 443.722656 2832.820312 467.109375 2856.210938 495.953125 2856.210938 L 920.914062 2856.210938 L 920.914062 2694.589844 L 618.980469 2477.171875 L 495.953125 2366.558594 "/>
<path fill-rule="nonzero" fill="rgb(71.289062%, 71.289062%, 93.75%)" fill-opacity="1" d="M 495.953125 2366.558594 C 495.953125 2366.558594 463.46875 2423.53125 475.808594 2461.398438 C 488.148438 2499.269531 475.894531 2598.851562 469.765625 2644.800781 C 463.636719 2690.761719 453.316406 2753.570312 490.648438 2799.53125 C 527.980469 2845.480469 604.574219 2822.511719 604.574219 2822.511719 C 604.574219 2822.511719 570.871094 2682.851562 570.871094 2668.800781 C 570.871094 2654.761719 541.765625 2404.289062 541 2399.699219 C 540.234375 2395.101562 495.953125 2366.558594 495.953125 2366.558594 "/>
<path fill-rule="nonzero" fill="rgb(66.992188%, 66.209412%, 99.21875%)" fill-opacity="1" d="M 1079.210938 3199.980469 L 1012.828125 3199.980469 L 1012.828125 3122.75 L 1079.210938 3122.75 L 1079.210938 3199.980469 "/>
<path fill-rule="nonzero" fill="rgb(94.921875%, 59.179688%, 2.352905%)" fill-opacity="1" d="M 1193.601562 3262.429688 L 1193.601562 3262.78125 C 1193.601562 3264.96875 1193.28125 3267.089844 1192.691406 3269.089844 C 1190.46875 3276.621094 1184.378906 3282.488281 1176.71875 3284.398438 C 1176.949219 3284.621094 1177.179688 3284.839844 1177.410156 3285.058594 L 1015.449219 3285.058594 C 1008.078125 3285.058594 1002.109375 3279.160156 1002.109375 3271.878906 L 1002.109375 3209.371094 C 1002.109375 3200.769531 1010.320312 3194.449219 1018.75 3196.609375 C 1024.128906 3197.988281 1030.339844 3199.039062 1037.238281 3199.300781 C 1051.421875 3199.820312 1063.160156 3196.800781 1071.289062 3193.761719 C 1076.128906 3191.949219 1081.589844 3193.070312 1085.300781 3196.628906 C 1100.410156 3211.140625 1115.519531 3225.640625 1130.628906 3240.148438 L 1171.320312 3240.148438 C 1183.628906 3240.148438 1193.601562 3250.121094 1193.601562 3262.429688 "/>
<path fill-rule="nonzero" fill="rgb(82.8125%, 49.021912%, 0%)" fill-opacity="1" d="M 1176.71875 3284.398438 C 1176.949219 3284.621094 1177.179688 3284.839844 1177.410156 3285.058594 L 1015.449219 3285.058594 C 1008.078125 3285.058594 1002.109375 3279.160156 1002.109375 3271.878906 L 1002.109375 3269.089844 L 1192.691406 3269.089844 C 1190.46875 3276.621094 1184.378906 3282.488281 1176.71875 3284.398438 "/>
<path fill-rule="nonzero" fill="rgb(66.992188%, 66.209412%, 99.21875%)" fill-opacity="1" d="M 927.296875 3199.980469 L 860.914062 3199.980469 L 860.914062 3122.75 L 927.296875 3122.75 L 927.296875 3199.980469 "/>
<path fill-rule="nonzero" fill="rgb(24.705505%, 28.637695%, 78.90625%)" fill-opacity="1" d="M 943.894531 3129.171875 L 940.0625 2793.679688 L 954.363281 2766.621094 L 943.894531 2699.210938 L 989.085938 2791.128906 L 985.511719 2847.808594 L 1000.828125 2971.890625 L 1013.601562 3091.890625 L 1067.71875 3126.621094 L 1097.851562 3129.171875 C 1097.851562 3129.171875 1077.941406 2733.171875 1058.789062 2705.601562 C 1039.640625 2678.019531 940.0625 2647.378906 940.0625 2647.378906 L 835.128906 2611.378906 L 617.597656 2627.148438 L 504.234375 2630.449219 L 486.964844 2658.359375 L 499.636719 2735.46875 L 531.808594 2780.660156 L 598.445312 2799.039062 L 699.042969 2800.570312 L 835.128906 2778.359375 L 824.683594 2838.871094 L 835.128906 2917.769531 L 857.339844 3017.339844 L 866.53125 3107.71875 L 906.363281 3129.171875 L 943.894531 3129.171875 "/>
<path fill-rule="nonzero" fill="rgb(16.868591%, 23.143005%, 69.726562%)" fill-opacity="1" d="M 781.511719 2652.75 C 781.511719 2652.75 911.722656 2697.941406 924.746094 2712.488281 C 937.765625 2727.039062 940.0625 2793.679688 940.0625 2793.679688 L 978.363281 2793.679688 C 978.363281 2793.679688 973.765625 2861.851562 978.363281 2898.621094 C 982.957031 2935.378906 995.980469 3129.171875 995.980469 3129.171875 L 1097.851562 3129.171875 C 1097.851562 3129.171875 1032.738281 3096.230469 1022.789062 3066.359375 C 1012.828125 3036.488281 999.808594 2870.28125 999.808594 2818.191406 C 999.808594 2766.109375 999.042969 2737.769531 973.765625 2718.621094 C 948.488281 2699.46875 917.085938 2658.871094 898.703125 2643.550781 C 880.320312 2628.230469 781.511719 2652.75 781.511719 2652.75 "/>
<path fill-rule="nonzero" fill="rgb(16.868591%, 23.143005%, 69.726562%)" fill-opacity="1" d="M 490.648438 2647.378906 C 490.648438 2647.378906 455.378906 2739.300781 493.59375 2786.789062 C 531.808594 2834.28125 590.871094 2830.449219 664.359375 2818.191406 C 737.851562 2805.941406 792.234375 2793.679688 821.339844 2794.449219 C 821.339844 2794.449219 806.785156 2863.378906 821.339844 2913.171875 C 835.894531 2962.960938 848.148438 3016.570312 848.148438 3050.28125 C 848.148438 3083.980469 848.148438 3129.171875 848.148438 3129.171875 L 943.894531 3129.171875 C 943.894531 3129.171875 900.234375 3116.921875 885.679688 3090.109375 C 871.128906 3063.300781 870.363281 2956.058594 860.402344 2923.128906 C 850.445312 2890.191406 832.0625 2863.378906 836.660156 2825.078125 C 841.253906 2786.789062 845.085938 2759.980469 845.085938 2759.980469 C 831.445312 2759.660156 810.648438 2759.648438 785.4375 2761.699219 C 736.875 2765.648438 728.027344 2772.648438 693.9375 2776.320312 C 674.046875 2778.460938 605.128906 2785.011719 543.296875 2749.261719 C 515.328125 2733.078125 505.355469 2717.820312 490.648438 2647.378906 "/>
<path fill-rule="nonzero" fill="rgb(82.421875%, 81.639099%, 100%)" fill-opacity="1" d="M 1034.328125 2638.019531 L 1186.351562 3291.191406 L 1213.261719 3291.191406 L 1084.96875 2627.238281 L 1034.328125 2638.019531 "/>
<path fill-rule="nonzero" fill="rgb(82.421875%, 81.639099%, 100%)" fill-opacity="1" d="M 353.890625 2638.019531 L 201.871094 3291.191406 L 174.960938 3291.191406 L 303.25 2627.238281 L 353.890625 2638.019531 "/>
<path fill-rule="nonzero" fill="rgb(9.812927%, 4.315186%, 52.539062%)" fill-opacity="1" d="M 505.765625 2308.058594 C 505.765625 2308.058594 499.636719 2291.980469 527.980469 2258.28125 C 556.320312 2224.570312 567.808594 2163.300781 549.425781 2114.28125 C 531.042969 2065.25 533.085938 2029.769531 566.785156 1991.980469 C 600.488281 1954.191406 642.363281 1975.339844 653.597656 2000 C 653.597656 2000 678.617188 1981.769531 725.597656 2003.71875 C 772.574219 2025.679688 780.234375 2061.941406 778.191406 2078.789062 C 776.148438 2095.640625 767.46875 2105.851562 767.46875 2105.851562 C 767.46875 2105.851562 773.597656 2113 770.019531 2127.808594 C 766.445312 2142.621094 746.019531 2161 746.019531 2161 L 649.230469 2253.429688 L 591.296875 2299.550781 L 505.765625 2308.058594 "/>
<path fill-rule="nonzero" fill="rgb(100%, 65.429688%, 0%)" fill-opacity="1" d="M 499.128906 2408.148438 C 499.128906 2408.148438 508.574219 2461.769531 501.9375 2519.980469 C 495.296875 2578.191406 485.761719 2569.171875 493.59375 2602.53125 C 501.425781 2635.890625 600.304688 2625.679688 600.304688 2625.679688 L 787.25 2610.871094 L 807.808594 2563.890625 L 807.808594 2469.429688 L 787.25 2354.53125 L 759.46875 2299.550781 L 690.503906 2279.949219 L 664.359375 2265.171875 L 601 2253.429688 L 531.042969 2269.78125 L 531.042969 2302.449219 L 522.363281 2381.078125 L 499.128906 2408.148438 "/>
<path fill-rule="nonzero" fill="rgb(95.701599%, 73.242188%, 66.992188%)" fill-opacity="1" d="M 518.105469 2414.28125 C 518.105469 2414.28125 502.703125 2416.320312 499.128906 2408.148438 C 495.554688 2399.980469 499.128906 2351.71875 499.128906 2351.71875 L 531.042969 2389.25 L 518.105469 2414.28125 "/>
<path fill-rule="nonzero" fill="rgb(100%, 79.6875%, 73.242188%)" fill-opacity="1" d="M 759.46875 2299.550781 C 759.46875 2299.550781 765.9375 2361.171875 771.722656 2381.25 C 777.511719 2401.339844 786.363281 2416.660156 791.128906 2430.28125 C 795.894531 2443.890625 798.914062 2565.179688 798.914062 2565.179688 L 824.683594 2563.210938 L 824.683594 2482.691406 C 824.683594 2482.691406 788.746094 2325.769531 778.871094 2314.871094 C 769 2303.980469 759.46875 2299.550781 759.46875 2299.550781 "/>
<path fill-rule="nonzero" fill="rgb(100%, 79.6875%, 73.242188%)" fill-opacity="1" d="M 575.46875 2343.300781 C 575.46875 2343.300781 564.746094 2283.890625 544.320312 2271.980469 C 523.894531 2260.058594 493.253906 2291.378906 493.597656 2333.25 C 493.9375 2375.128906 518.105469 2414.28125 518.105469 2414.28125 L 534.53125 2474.871094 L 556.574219 2555.550781 L 573.9375 2592.660156 L 590.617188 2602.53125 L 835.128906 2602.53125 L 827.214844 2567.980469 L 825.4375 2560.789062 L 768.320312 2558.621094 L 658.191406 2534.789062 L 635.214844 2514.359375 L 608.148438 2448.488281 L 591.808594 2399.46875 L 579.945312 2360.230469 L 575.46875 2343.300781 "/>
<path fill-rule="nonzero" fill="rgb(24.31488%, 28.24707%, 77.734375%)" fill-opacity="1" d="M 1177.519531 2324.148438 L 1090.570312 2602.53125 L 787.25 2602.53125 L 871.207031 2333.730469 C 872.988281 2328.03125 878.265625 2324.148438 884.238281 2324.148438 L 1177.519531 2324.148438 "/>
<path fill-rule="nonzero" fill="rgb(100%, 79.6875%, 73.242188%)" fill-opacity="1" d="M 613 2216.660156 L 601 2253.429688 C 601 2253.429688 615.042969 2287.378906 646.191406 2291.210938 C 677.339844 2295.039062 691.128906 2283.300781 691.128906 2283.300781 L 688.828125 2250.621094 L 691.128906 2242.960938 C 691.128906 2242.960938 738.363281 2242.960938 752.914062 2202.359375 C 767.46875 2161.769531 757.511719 2101 757.511719 2101 C 757.511719 2101 727.382812 2109.941406 709.511719 2081.601562 C 709.511719 2081.601562 688.828125 2105.851562 646.957031 2100.230469 C 646.957031 2100.230469 639.042969 2143.640625 630.363281 2144.148438 C 621.679688 2144.660156 629.597656 2122.191406 613 2120.148438 C 596.402344 2118.109375 600.746094 2147.609375 601 2152.640625 C 601.253906 2157.679688 602.191406 2172.828125 618.191406 2184.148438 L 621.171875 2196.75 L 613 2216.660156 "/>
<path fill-rule="nonzero" fill="rgb(93.75%, 70.117188%, 63.867188%)" fill-opacity="1" d="M 626.019531 2176.828125 C 626.019531 2176.828125 622.957031 2191.640625 631.382812 2206.699219 C 639.808594 2221.769531 691.128906 2242.960938 691.128906 2242.960938 L 691.128906 2283.300781 C 691.128906 2283.300781 685.765625 2248.828125 669.679688 2241.679688 C 653.597656 2234.53125 633.679688 2224.320312 626.53125 2214.109375 C 619.382812 2203.890625 626.019531 2176.828125 626.019531 2176.828125 "/>
<path fill-rule="nonzero" fill="rgb(93.75%, 70.117188%, 63.867188%)" fill-opacity="1" d="M 607.765625 2147.601562 C 607.765625 2147.601562 608.019531 2134.570312 610.445312 2132.789062 C 612.871094 2131 622.828125 2150.148438 624.871094 2158.828125 C 626.914062 2167.511719 619.382812 2172.621094 619.382812 2172.621094 C 619.382812 2172.621094 625.253906 2160.359375 622.445312 2158.570312 C 619.636719 2156.789062 614.019531 2160.109375 613.128906 2157.171875 C 612.234375 2154.230469 616.320312 2151.808594 615.679688 2147.078125 C 615.042969 2142.359375 611.339844 2133.429688 607.765625 2147.601562 "/>
<path fill-rule="nonzero" fill="rgb(93.75%, 70.117188%, 63.867188%)" fill-opacity="1" d="M 626.019531 2176.828125 C 626.019531 2176.828125 622.277344 2183.980469 618.191406 2184.148438 C 618.191406 2184.148438 618.617188 2200.570312 613 2216.660156 L 626.019531 2209 L 624.488281 2187.550781 L 626.019531 2176.828125 "/>
<path fill-rule="nonzero" fill="rgb(91.014099%, 56.443787%, 1.177979%)" fill-opacity="1" d="M 575.46875 2343.300781 C 575.46875 2343.300781 626.019531 2536.148438 633.851562 2540.230469 C 641.679688 2544.320312 653.253906 2540.570312 692.402344 2547.039062 C 731.554688 2553.511719 768.320312 2558.621094 768.320312 2558.621094 C 768.320312 2558.621094 689 2535.46875 665.851562 2530.019531 C 642.703125 2524.570312 613.425781 2470.109375 575.46875 2343.300781 "/>
<path fill-rule="nonzero" fill="rgb(91.014099%, 56.443787%, 1.177979%)" fill-opacity="1" d="M 518.105469 2414.28125 C 518.105469 2414.28125 570.53125 2564.058594 578.019531 2579.039062 C 585.511719 2594.019531 598.445312 2602.53125 598.445312 2602.53125 L 547.722656 2602.53125 C 547.722656 2602.53125 559.296875 2568.488281 543.980469 2525.941406 C 528.660156 2483.378906 518.105469 2414.28125 518.105469 2414.28125 "/>
<path fill-rule="nonzero" fill="rgb(66.992188%, 66.209412%, 99.21875%)" fill-opacity="1" d="M 1197.601562 2658.359375 L 200.488281 2658.359375 C 191.839844 2658.359375 184.828125 2651.351562 184.828125 2642.699219 L 184.828125 2618.191406 C 184.828125 2609.539062 191.839844 2602.53125 200.488281 2602.53125 L 1197.601562 2602.53125 C 1206.238281 2602.53125 1213.261719 2609.539062 1213.261719 2618.191406 L 1213.261719 2642.699219 C 1213.261719 2651.351562 1206.238281 2658.359375 1197.601562 2658.359375 "/>
<path fill-rule="nonzero" fill="rgb(24.31488%, 28.24707%, 77.734375%)" fill-opacity="1" d="M 829.765625 2602.53125 L 608.523438 2602.53125 C 600.984375 2602.53125 594.871094 2596.421875 594.871094 2588.878906 L 594.871094 2586.738281 C 594.871094 2579.199219 600.984375 2573.078125 608.523438 2573.078125 L 829.765625 2573.078125 L 829.765625 2602.53125 "/>
<path fill-rule="nonzero" fill="rgb(31.37207%, 32.93457%, 85.546875%)" fill-opacity="1" d="M 1196.078125 2345.238281 L 1115.71875 2602.53125 L 812.398438 2602.53125 L 899.351562 2324.148438 L 1180.578125 2324.148438 C 1191.539062 2324.148438 1199.351562 2334.78125 1196.078125 2345.238281 "/>
<path fill-rule="nonzero" fill="rgb(43.530273%, 47.068787%, 93.75%)" fill-opacity="1" d="M 1035.328125 2481.179688 C 1025.269531 2498.601562 1005.898438 2506.261719 992.078125 2498.28125 C 978.253906 2490.289062 975.199219 2469.699219 985.261719 2452.269531 C 995.320312 2434.851562 1014.679688 2427.191406 1028.511719 2435.171875 C 1042.328125 2443.160156 1045.390625 2463.75 1035.328125 2481.179688 "/>
<path fill-rule="nonzero" fill="rgb(100%, 65.429688%, 0%)" fill-opacity="1" d="M 1041.679688 3262.429688 L 1041.679688 3262.78125 C 1041.679688 3264.96875 1041.359375 3267.089844 1040.769531 3269.089844 C 1038.550781 3276.621094 1032.460938 3282.488281 1024.800781 3284.398438 C 1025.03125 3284.621094 1025.261719 3284.839844 1025.488281 3285.058594 L 863.53125 3285.058594 C 856.160156 3285.058594 850.191406 3279.160156 850.191406 3271.878906 L 850.191406 3209.371094 C 850.191406 3200.769531 858.398438 3194.449219 866.828125 3196.609375 C 872.210938 3197.988281 878.421875 3199.039062 885.320312 3199.300781 C 899.5 3199.820312 911.238281 3196.800781 919.371094 3193.761719 C 924.210938 3191.949219 929.671875 3193.070312 933.378906 3196.628906 C 948.488281 3211.140625 963.601562 3225.640625 978.710938 3240.148438 L 1019.398438 3240.148438 C 1031.710938 3240.148438 1041.679688 3250.121094 1041.679688 3262.429688 "/>
<path fill-rule="nonzero" fill="rgb(91.014099%, 56.834412%, 1.960754%)" fill-opacity="1" d="M 1024.800781 3284.398438 C 1025.03125 3284.621094 1025.261719 3284.839844 1025.488281 3285.058594 L 863.53125 3285.058594 C 856.160156 3285.058594 850.191406 3279.160156 850.191406 3271.878906 L 850.191406 3269.089844 L 1040.769531 3269.089844 C 1038.550781 3276.621094 1032.460938 3282.488281 1024.800781 3284.398438 "/>
</svg>
