<?xml version="1.0" encoding="UTF-8"?>
<svg version="1.1" xmlns="http://www.w3.org/2000/svg" width="768" height="768">
<path d="M0 0 C11.1879067 7.81477378 17.11570145 19.09037405 20.25366211 32.2043457 C21.33197996 38.57523746 21.14673516 44.95513653 21.0234375 51.39453125 C21.00834334 52.78514154 20.99466341 54.17576792 20.98242188 55.56640625 C20.94742398 58.92620459 20.89832603 62.28514899 20.8359375 65.64453125 C16.8759375 65.64453125 12.9159375 65.64453125 8.8359375 65.64453125 C8.73796875 63.77410156 8.64 61.90367188 8.5390625 59.9765625 C8.38885662 57.47000186 8.23776765 54.96349403 8.0859375 52.45703125 C7.993125 50.6172168 7.993125 50.6172168 7.8984375 48.74023438 C7.06608571 35.59601235 4.45492265 22.42271305 -5.6640625 13.26953125 C-11.4975532 8.34408391 -17.32061181 8.20083907 -24.71875 8.33984375 C-31.35985342 8.92715222 -35.25973447 11.43496404 -39.8515625 16.14453125 C-51.26300781 30.29159702 -50.40958291 49.41724725 -51.1640625 66.64453125 C-39.2840625 66.64453125 -27.4040625 66.64453125 -15.1640625 66.64453125 C-15.1640625 54.43453125 -15.1640625 42.22453125 -15.1640625 29.64453125 C-11.2040625 29.64453125 -7.2440625 29.64453125 -3.1640625 29.64453125 C-3.1640625 41.85453125 -3.1640625 54.06453125 -3.1640625 66.64453125 C44.3559375 66.64453125 91.8759375 66.64453125 140.8359375 66.64453125 C140.8359375 288.40453125 140.8359375 510.16453125 140.8359375 738.64453125 C125.6559375 738.64453125 110.4759375 738.64453125 94.8359375 738.64453125 C94.8359375 740.95453125 94.8359375 743.26453125 94.8359375 745.64453125 C94.55073345 747.32010504 94.23638054 748.9927037 93.8359375 750.64453125 C84.09335732 750.74272075 74.3803645 750.71882903 64.6484375 750.20703125 C63.50217896 750.14817749 63.50217896 750.14817749 62.33276367 750.08813477 C57.46466958 749.81012567 52.6683166 749.29578053 47.8359375 748.64453125 C47.5059375 753.26453125 47.1759375 757.88453125 46.8359375 762.64453125 C37.81066519 762.91598489 29.0785088 761.99443724 20.14477479 760.87833893 C16.44260722 760.41644932 12.73854188 759.97065564 9.03456432 759.52355093 C7.02476516 759.28083943 5.01505206 759.03741449 3.00541991 758.79332405 C-18.89003579 756.13625493 -40.80744464 753.66010352 -62.7265625 751.20703125 C-64.55448814 751.00245812 -64.55448814 751.00245812 -66.41934156 750.79375219 C-144.36363805 742.09491049 -221.54319407 737.42058994 -299.9765625 737.70703125 C-301.08994948 737.71081488 -302.20333646 737.71459851 -303.35046244 737.7184968 C-331.29172936 737.81752581 -359.22766827 738.1166488 -387.1640625 738.64453125 C-387.1640625 734.35453125 -387.1640625 730.06453125 -387.1640625 725.64453125 C-388.11539063 725.66773438 -389.06671875 725.6909375 -390.046875 725.71484375 C-405.13459424 725.95099294 -420.12898751 724.76286719 -435.1640625 723.64453125 C-435.1640625 720.01453125 -435.1640625 716.38453125 -435.1640625 712.64453125 C-437.03191406 712.70640625 -437.03191406 712.70640625 -438.9375 712.76953125 C-447.59569518 712.76953125 -456.19485623 711.59360424 -464.7890625 710.64453125 C-466.57416621 710.4513368 -468.35932215 710.25862433 -470.14453125 710.06640625 C-474.48499757 709.59800653 -478.82470349 709.12307619 -483.1640625 708.64453125 C-483.53912815 698.62679844 -482.38345031 688.81082376 -481.30433655 678.87202454 C-481.10146822 676.96371169 -480.89911 675.05534456 -480.69721502 673.14692849 C-480.14235621 667.91614668 -479.58029197 662.68616074 -479.01703084 657.45627797 C-478.4092191 651.80077344 -477.8081346 646.14455348 -477.20622253 640.48841858 C-476.15909351 630.6573161 -475.10771337 620.82667567 -474.05348396 610.99633217 C-472.51059918 596.60924913 -470.97432614 582.22146491 -469.43957727 567.83351209 C-466.92469663 544.25773637 -464.40449151 520.68253256 -461.88110352 497.10766602 C-459.47277446 474.60759702 -457.06644314 452.10731618 -454.66333008 429.60668945 C-454.590388 428.92373237 -454.51744591 428.24077529 -454.44229347 427.53712254 C-453.56152714 419.29045941 -452.68085434 411.04378629 -451.80022222 402.79710883 C-450.48955543 390.52340483 -449.17872668 378.24971812 -447.86783029 365.97603864 C-447.7231753 364.62165704 -447.57852145 363.26727531 -447.43386875 361.91289346 C-445.35747925 342.47168374 -443.27983799 323.03060818 -441.2010337 303.58965652 C-436.02483889 255.18153082 -430.85222103 206.7730508 -425.71435547 158.36083984 C-425.50594692 156.39733767 -425.29753648 154.4338357 -425.08912408 152.47033393 C-423.28751607 135.49621403 -421.48680681 118.52199948 -419.69069906 101.5472966 C-419.03068971 95.30990274 -418.36992014 89.07258975 -417.70855592 82.83533941 C-417.3365854 79.32680049 -416.96507955 75.81821389 -416.59480357 72.30949569 C-416.20055416 68.5751626 -415.80479413 64.84099257 -415.40867615 61.1068573 C-415.29575464 60.03321011 -415.18283313 58.95956293 -415.06648976 57.85338098 C-414.525283 52.76634669 -413.93126241 47.70261344 -413.1640625 42.64453125 C-402.97712626 42.2515201 -392.97272798 43.45525835 -382.86425781 44.54052734 C-380.92286414 44.74468339 -378.98141557 44.94831797 -377.03991699 45.151474 C-372.87258827 45.5885808 -368.70565018 46.02918864 -364.53897858 46.47251511 C-357.91847558 47.17673612 -351.2970552 47.87205137 -344.67547607 48.56607056 C-328.21308519 50.29295305 -311.75203932 52.03254141 -295.29101562 53.7723999 C-282.52054288 55.1219702 -269.74975109 56.46838775 -256.97808909 57.8066622 C-251.49000645 58.38201496 -246.00221241 58.95986148 -240.5150528 59.54395676 C-207.97564853 63.00649695 -175.70327325 65.88616312 -142.94921875 66.05859375 C-140.61697271 66.07739529 -138.28473283 66.09697455 -135.95249939 66.11727905 C-129.93433338 66.16766071 -123.91614552 66.20777608 -117.89788818 66.24542236 C-111.70856758 66.28606644 -105.51933028 66.33687644 -99.33007812 66.38671875 C-87.27479889 66.48235847 -75.21947156 66.56710496 -63.1640625 66.64453125 C-63.17977295 65.76829102 -63.1954834 64.89205078 -63.21166992 63.98925781 C-63.26337693 60.67913675 -63.30068882 57.36945643 -63.32885742 54.05908203 C-63.34376951 52.63746284 -63.36410659 51.21588818 -63.39038086 49.79443359 C-63.70595549 32.25838478 -60.08651187 16.91068135 -47.671875 3.84375 C-34.51551004 -7.69368532 -14.77226789 -9.25266599 0 0 Z " fill="#F8D87A" transform="translate(543.1640625,5.35546875)"/>
<path d="M0 0 C10.34466694 -0.40988006 20.52509397 0.83701521 30.79174805 1.92773438 C32.78344246 2.13511471 34.77518897 2.34199515 36.76698303 2.54841614 C42.14686374 3.10738391 47.52599275 3.67330218 52.90500998 4.24051094 C58.53665683 4.83315027 64.16897498 5.4193395 69.80122375 6.00622559 C80.45445884 7.11728785 91.10708134 8.23411429 101.75949365 9.3530345 C113.89206082 10.62714347 126.02530026 11.89479222 138.15859926 13.16191006 C163.10648523 15.76744045 188.0535199 18.38104579 213 21 C213 21.33 213 21.66 213 22 C196.47062179 22.31712727 180.05067197 21.43593014 163.56234741 20.40527344 C155.85243162 19.92341768 148.14106941 19.46550178 140.4296875 19.0078125 C139.66562529 18.962295 138.90156307 18.9167775 138.11434746 18.86988068 C125.3100355 18.10896789 112.50489957 17.49709263 99.6875 17 C70.76366488 15.87059858 41.88259357 13.88374925 13 12 C13.01134665 12.91473776 13.02269329 13.82947552 13.03438377 14.7719326 C13.11149083 26.11391819 12.62680557 37.38575521 12.02197266 48.70947266 C11.91649487 50.74193032 11.81137741 52.77440671 11.70658875 54.80690002 C11.42307347 60.28526826 11.13440516 65.76335358 10.84464312 71.24139452 C10.53986432 77.01807558 10.23952115 82.7949875 9.93856812 88.5718689 C9.43194194 98.28406587 8.92209605 107.99608955 8.41015625 117.70800781 C7.82248998 128.85698481 7.23919187 140.00618331 6.65844882 151.15552294 C6.09566242 161.95922474 5.5303656 172.76279367 4.96375656 183.56629562 C4.72469962 188.12442959 4.4863594 192.68260014 4.24861526 197.24080276 C3.16916966 217.91859094 2.08850227 238.59216239 0.661026 259.2492485 C-0.06916537 269.82481565 -0.63468883 280.40419347 -1.1484375 290.9921875 C-1.24640682 292.97071942 -1.34460976 294.94923978 -1.44302368 296.92774963 C-1.64967693 301.09156344 -1.85479469 305.2554486 -2.05859375 309.41940308 C-2.38262792 316.03893691 -2.71061072 322.65827199 -3.0390625 329.27758789 C-3.64523311 341.50305774 -4.24803872 353.7286919 -4.85002136 365.95436859 C-5.56378746 380.44888923 -6.27888046 394.94334312 -7 409.4375 C-7.0396991 410.2354813 -7.07939819 411.0334626 -7.12030029 411.85562515 C-8.9620389 448.84652904 -10.95120765 485.8293035 -12.95910645 522.81150818 C-13.77932755 537.91876658 -14.59548847 553.02624092 -15.40982437 568.13381767 C-15.9560557 578.26658009 -16.50279195 588.39931529 -17.04944611 598.5320549 C-17.24841387 602.2205958 -17.44730063 605.90914106 -17.6461792 609.59768677 C-17.96008876 615.41882785 -18.27444394 621.23994473 -18.58911514 627.06104469 C-18.70464429 629.19941248 -18.82003418 631.33778779 -18.9352684 633.47617149 C-19.59153941 645.65277702 -20.269438 657.82761142 -21 670 C-31.33151635 670.33208735 -41.43784817 669.13747183 -51.6875 668 C-53.46804085 667.80675547 -55.2486395 667.61404285 -57.02929688 667.421875 C-61.35355547 666.95404593 -65.6769682 666.47902747 -70 666 C-70.37506565 655.98226719 -69.21938781 646.16629251 -68.14027405 636.22749329 C-67.93740572 634.31918044 -67.7350475 632.41081331 -67.53315252 630.50239724 C-66.97829371 625.27161543 -66.41622947 620.04162949 -65.85296834 614.81174672 C-65.2451566 609.15624219 -64.6440721 603.50002223 -64.04216003 597.84388733 C-62.99503101 588.01278485 -61.94365087 578.18214442 -60.88942146 568.35180092 C-59.34653668 553.96471788 -57.81026364 539.57693366 -56.27551477 525.18898084 C-53.76063413 501.61320512 -51.24042901 478.03800131 -48.71704102 454.46313477 C-46.30871196 431.96306577 -43.90238064 409.46278493 -41.49926758 386.9621582 C-41.4263255 386.27920112 -41.35338341 385.59624404 -41.27823097 384.89259129 C-40.39746464 376.64592816 -39.51679184 368.39925504 -38.63615972 360.15257758 C-37.32549293 347.87887358 -36.01466418 335.60518687 -34.70376779 323.33150739 C-34.5591128 321.97712579 -34.41445895 320.62274406 -34.26980625 319.26836221 C-32.19341675 299.82715249 -30.11577549 280.38607693 -28.0369712 260.94512527 C-22.86077639 212.53699957 -17.68815853 164.12851955 -12.55029297 115.71630859 C-12.34188442 113.75280642 -12.13347398 111.78930445 -11.92506158 109.82580268 C-10.12345357 92.85168278 -8.32274431 75.87746823 -6.52663656 58.90276535 C-5.86662721 52.66537149 -5.20585764 46.4280585 -4.54449342 40.19080816 C-4.1725229 36.68226924 -3.80101705 33.17368264 -3.43074107 29.66496444 C-3.03649166 25.93063135 -2.64073163 22.19646132 -2.24461365 18.46232605 C-2.13169214 17.38867886 -2.01877063 16.31503168 -1.90242726 15.20884973 C-1.3612205 10.12181544 -0.76719991 5.05808219 0 0 Z " fill="#2FA89B" transform="translate(130,48)"/>
<path d="M0 0 C14.73881005 -0.06187742 14.73881005 -0.06187742 21.20922852 0.33544922 C23.06450417 0.44600395 23.06450417 0.44600395 24.95726013 0.55879211 C26.25140335 0.63993759 27.54554657 0.72108307 28.87890625 0.8046875 C30.28240829 0.88933629 31.685938 0.97352724 33.0894928 1.05729675 C36.04988029 1.23450969 39.01012683 1.41384936 41.97027588 1.59500122 C49.75943846 2.07106673 57.54956166 2.53094925 65.33984375 2.98828125 C66.11184113 3.03367727 66.8838385 3.0790733 67.67922974 3.12584496 C80.65674623 3.8867786 93.63593877 4.53062034 106.625 5.0625 C122.11715025 5.69802604 137.58666993 6.54736555 153.0625 7.5 C179.02602646 9.09797862 205.00372752 10.10821434 231 11 C231 11.33 231 11.66 231 12 C159.06 12 87.12 12 13 12 C13 229.47 13 446.94 13 671 C1.49651464 671 -9.69764078 670.85158568 -21.125 670 C-22.48824023 669.90306715 -23.85152166 669.8067121 -25.21484375 669.7109375 C-28.47701009 669.47957819 -31.73865269 669.24258488 -35 669 C-35.26287204 658.14566334 -34.48207125 647.32258314 -33.86328125 636.4921875 C-33.74216235 634.33050774 -33.62136669 632.16880985 -33.50086975 630.00709534 C-33.24265128 625.38223675 -32.98278766 620.75747488 -32.72161865 616.13278198 C-32.02358201 603.76476448 -31.33795313 591.39605532 -30.65234375 579.02734375 C-30.58241966 577.76725809 -30.51249557 576.50717243 -30.44045258 575.20890236 C-29.02163142 549.6216522 -27.68151296 524.03070317 -26.375 498.4375 C-26.27212716 496.42359406 -26.16925241 494.40968822 -26.06637573 492.39578247 C-25.8628968 488.41150582 -25.65945439 484.42722731 -25.45603943 480.44294739 C-25.40639982 479.47068521 -25.35676022 478.49842304 -25.30561638 477.49669838 C-25.20642495 475.55334009 -25.10727934 473.60997946 -25.00818062 471.66661644 C-24.32089513 458.1910878 -23.62087521 444.71629388 -22.90625 431.2421875 C-22.86262455 430.41935776 -22.8189991 429.59652802 -22.77405167 428.74876404 C-22.55871269 424.68817213 -22.34316328 420.62759142 -22.12750244 416.5670166 C-22.04333308 414.98217783 -21.95916559 413.39733897 -21.875 411.8125 C-21.83361656 411.03327682 -21.79223312 410.25405365 -21.74959564 409.45121765 C-20.74653421 390.55530595 -19.77739811 371.65861179 -18.88241577 352.75724792 C-18.78628396 350.72841531 -18.69013259 348.69958362 -18.59396362 346.67075276 C-18.50589625 344.81194972 -18.41798907 342.95313909 -18.33009338 341.09432793 C-17.46036792 322.76994513 -16.48573541 304.45354981 -15.43507385 286.13866425 C-14.9921225 278.41340698 -14.5553042 270.68780126 -14.11914062 262.9621582 C-14.07344028 262.15285252 -14.02773993 261.34354684 -13.98065472 260.50971675 C-12.87964779 240.99271647 -11.82649597 221.47318009 -10.78125 201.953125 C-10.73468954 201.08379593 -10.68812908 200.21446686 -10.6401577 199.31879449 C-10.06867406 188.64677275 -9.49879037 177.97466592 -8.92962027 167.30252057 C-8.45335913 158.37325332 -7.97587623 149.44405152 -7.49831963 140.51485348 C-6.37774144 119.5616723 -5.25935944 98.60837416 -4.14163208 77.65504074 C-3.99734195 74.95017204 -3.85304256 72.24530384 -3.70874023 69.54043579 C-2.47210131 46.36031144 -1.23581961 23.18016805 0 0 Z " fill="#F67462" transform="translate(143,60)"/>
<path d="M0 0 C79.2 0 158.4 0 240 0 C240 19.8 240 39.6 240 60 C160.8 60 81.6 60 0 60 C0 40.2 0 20.4 0 0 Z " fill="#D29958" transform="translate(204,528)"/>
<path d="M0 0 C79.2 0 158.4 0 240 0 C240 19.8 240 39.6 240 60 C160.8 60 81.6 60 0 60 C0 40.2 0 20.4 0 0 Z " fill="#D29958" transform="translate(204,288)"/>
<path d="M0 0 C11.1879067 7.81477378 17.11570145 19.09037405 20.25366211 32.2043457 C21.33197996 38.57523746 21.14673516 44.95513653 21.0234375 51.39453125 C21.00834334 52.78514154 20.99466341 54.17576792 20.98242188 55.56640625 C20.94742398 58.92620459 20.89832603 62.28514899 20.8359375 65.64453125 C16.8759375 65.64453125 12.9159375 65.64453125 8.8359375 65.64453125 C8.73796875 63.77410156 8.64 61.90367188 8.5390625 59.9765625 C8.38885662 57.47000186 8.23776765 54.96349403 8.0859375 52.45703125 C8.0240625 51.23048828 7.9621875 50.00394531 7.8984375 48.74023438 C7.06608571 35.59601235 4.45492265 22.42271305 -5.6640625 13.26953125 C-11.4975532 8.34408391 -17.32061181 8.20083907 -24.71875 8.33984375 C-31.35985342 8.92715222 -35.25973447 11.43496404 -39.8515625 16.14453125 C-51.26300781 30.29159702 -50.40958291 49.41724725 -51.1640625 66.64453125 C-39.2840625 66.64453125 -27.4040625 66.64453125 -15.1640625 66.64453125 C-15.1640625 54.43453125 -15.1640625 42.22453125 -15.1640625 29.64453125 C-11.2040625 29.64453125 -7.2440625 29.64453125 -3.1640625 29.64453125 C-3.07130218 46.68245573 -3.00000018 63.72027871 -2.95681381 80.75839806 C-2.93622494 88.67023716 -2.90817508 96.58191608 -2.86230469 104.49365234 C-2.82232386 111.39286811 -2.796603 118.29196781 -2.78770852 125.19129622 C-2.78251268 128.84146668 -2.77037841 132.49130522 -2.74114227 136.14136887 C-2.70870067 140.22508966 -2.70811026 144.30824046 -2.70996094 148.39208984 C-2.68838928 150.18960693 -2.68838928 150.18960693 -2.66638184 152.0234375 C-2.71860789 162.70309153 -5.5990178 171.85392329 -13.1640625 179.64453125 C-20.33171265 185.27830426 -27.64396154 187.24130441 -36.70703125 187.0859375 C-44.01656527 186.15262977 -50.67005091 182.71413035 -55.6640625 177.26953125 C-60.74847577 170.49031356 -63.27646218 163.87791256 -63.30450439 155.37852478 C-63.31021454 154.33722412 -63.31592468 153.29592346 -63.32180786 152.22306824 C-63.32292572 151.09105484 -63.32404358 149.95904144 -63.32519531 148.79272461 C-63.33016022 147.59207367 -63.33512512 146.39142273 -63.34024048 145.15438843 C-63.35232691 141.86678778 -63.3598021 138.57922264 -63.36425114 135.2916038 C-63.36719001 133.23261861 -63.37129645 131.17363888 -63.37575531 129.11465645 C-63.38942297 122.65829526 -63.39909174 116.20194668 -63.4029572 109.74557203 C-63.40742855 102.3199253 -63.42493636 94.89446351 -63.4539578 87.46887296 C-63.47566594 81.71236521 -63.48566641 75.95590911 -63.48699832 70.19936091 C-63.48804035 66.76948677 -63.49381775 63.33978662 -63.51181793 59.90995598 C-63.52897674 56.07386373 -63.52697359 52.23821524 -63.52050781 48.40209961 C-63.5297226 47.28425583 -63.53893738 46.16641205 -63.5484314 45.01469421 C-63.4662124 29.35026621 -58.55221324 15.29576703 -47.671875 3.84375 C-34.51551004 -7.69368532 -14.77226789 -9.25266599 0 0 Z " fill="#000000" transform="translate(543.1640625,5.35546875)"/>
<path d="M0 0 C1.94861953 3.37760719 3.04336049 6.07074113 3 10 C0.89034189 13.11997575 -1.80808697 15.59527326 -4.53125 18.1796875 C-5.31512085 18.95128204 -6.0989917 19.72287659 -6.90661621 20.51785278 C-9.42178967 22.9872011 -11.95978178 25.43144666 -14.5 27.875 C-17.00644837 30.31630195 -19.50797889 32.76252571 -22.00769043 35.21072388 C-23.56428104 36.73188341 -25.12562325 38.24820149 -26.69250488 39.75875854 C-30.84146513 43.77771003 -34.77238507 47.89387854 -38.52825928 52.28369141 C-40.53656873 54.62573353 -42.64616146 56.86881454 -44.75 59.125 C-49.50276806 64.33725017 -53.86005807 69.78510606 -58.16796875 75.3671875 C-60.0044238 77.74273301 -61.87725549 80.0772578 -63.80078125 82.3828125 C-83.66583393 106.30361851 -98.73920926 133.35454761 -111.74829102 161.47070312 C-114.41569499 166.86065928 -116.60537968 169.76176183 -121.75 173 C-125.12135882 175.14383843 -128.45603095 177.29779318 -131.70019531 179.62890625 C-132.32097961 180.07435791 -132.94176392 180.51980957 -133.58135986 180.97875977 C-134.04951111 181.31576904 -134.51766235 181.65277832 -135 182 C-135.4125 180.80624756 -135.825 179.61249512 -136.25 178.38256836 C-137.81057157 173.87717373 -139.3876161 169.37768199 -140.96923828 164.87963867 C-141.64646859 162.94659687 -142.31945425 161.01206174 -142.98779297 159.07592773 C-150.71698618 134.87515154 -150.71698618 134.87515154 -167 116.3125 C-167.845625 115.73113281 -168.69125 115.14976562 -169.5625 114.55078125 C-171.66564071 113.21272538 -173.74662447 112.05887785 -176 111 C-174.55366256 107.39588346 -172.80863332 105.88597432 -169.5625 103.8125 C-168.78003906 103.30332031 -167.99757813 102.79414063 -167.19140625 102.26953125 C-162.64795358 99.63740626 -158.12380919 99.01689515 -153 100 C-142.57104424 105.95391581 -136.89901339 118.62768023 -132.125 129.0625 C-131.17088599 131.11663641 -130.21524329 133.1700637 -129.2578125 135.22265625 C-128.64123779 136.56469116 -128.64123779 136.56469116 -128.01220703 137.93383789 C-127.16745449 139.94051741 -127.16745449 139.94051741 -126 141 C-125.50113281 140.12601563 -125.00226563 139.25203125 -124.48828125 138.3515625 C-107.947374 109.84631469 -86.08943831 84.32685839 -64 60 C-63.33097656 59.24976563 -62.66195312 58.49953125 -61.97265625 57.7265625 C-42.48500242 35.8800679 -42.48500242 35.8800679 -32.1875 26.9375 C-30.04420474 25.03915277 -28.05407253 23.05581681 -26.0625 21 C-18.19263272 13.03531504 -9.10779927 6.46530432 0 0 Z " fill="#A04A2E" transform="translate(633,202)"/>
<path d="M0 0 C11.88 0 23.76 0 36 0 C36.09051752 11.97024559 36.16384097 23.94026232 36.20724869 35.91077328 C36.22808654 41.46969804 36.2563349 47.02837565 36.30175781 52.5871582 C36.34535087 57.9558561 36.36916569 63.32431689 36.37950897 68.69317818 C36.38687618 70.73722628 36.40126253 72.78126202 36.42292023 74.82520866 C36.45213301 77.69747417 36.45594853 80.56877097 36.45410156 83.44116211 C36.47567322 84.69705391 36.47567322 84.69705391 36.49768066 85.97831726 C36.44866481 93.06407058 34.66028104 99.33971896 29.5625 104.4375 C24.10639494 107.76439333 19.37424214 109.01987874 13 108 C6.79324447 105.55226542 3.75099543 101.94215013 1 96 C-0.32102685 92.03691946 -0.1308172 88.25294975 -0.11352539 84.12231445 C-0.11367142 83.21479431 -0.11381744 82.30727417 -0.1139679 81.37225342 C-0.11327061 78.36923848 -0.10548676 75.36628537 -0.09765625 72.36328125 C-0.09579142 70.28248631 -0.09436782 68.20169092 -0.09336853 66.12089539 C-0.08954849 60.6414977 -0.07972255 55.16212648 -0.06866455 49.68273926 C-0.05843943 44.09253294 -0.05386855 38.50232235 -0.04882812 32.91210938 C-0.03809985 21.94139275 -0.02050717 10.97070271 0 0 Z " fill="#F8D87A" transform="translate(492,72)"/>
<path d="M0 0 C33.07247361 -0.24838995 65.98099153 0.08852313 99 2 C101.07893439 2.119055 103.15787333 2.23803043 105.23681641 2.35693359 C114.0336863 2.86168396 122.83026162 3.37120841 131.6262207 3.89160156 C147.48974427 4.82591319 163.35573224 5.60359262 179.23144531 6.29638672 C191.74121446 6.84324926 204.24605073 7.458085 216.75 8.125 C217.58561462 8.16956329 218.42122925 8.21412659 219.28216553 8.26004028 C223.85490019 8.50444015 228.42750616 8.75112958 233 9 C233.01830225 14.16123555 232.84828934 18.91026393 232 24 C221.09325895 24.49090638 210.28850128 23.03771806 199.46411133 21.88867188 C197.28522728 21.66158691 195.10629106 21.43500211 192.92730713 21.20887756 C187.03711199 20.59619819 181.14766805 19.97655637 175.25833726 19.35563087 C169.09417362 18.70693705 162.92933819 18.06469198 156.76457214 17.42175293 C145.10198165 16.20444636 133.44000394 14.98136898 121.77823704 13.75620031 C112.45813264 12.77717878 103.13774086 11.80093097 93.81713867 10.82666016 C93.15990261 10.75795926 92.50266654 10.68925836 91.82551423 10.61847562 C88.52801555 10.27380291 85.23051169 9.9291797 81.93300593 9.5845747 C54.62125089 6.73022086 27.3103479 3.86778385 0 1 C0 0.67 0 0.34 0 0 Z " fill="#30A89B" transform="translate(358,744)"/>
<path d="M0 0 C74.25 0 148.5 0 225 0 C225 7.875 225 7.875 224 12 C214.25741982 12.0981895 204.544427 12.07429778 194.8125 11.5625 C194.04832764 11.52326416 193.28415527 11.48402832 192.49682617 11.44360352 C189.11572314 11.25051411 185.80718217 10.97411432 182.4465332 10.52294922 C177.17524548 9.85193762 171.890189 9.59301796 166.5859375 9.31640625 C165.47978088 9.25670151 164.37362427 9.19699677 163.23394775 9.13548279 C159.61445891 8.94133089 155.99474898 8.75173533 152.375 8.5625 C149.83772769 8.42773773 147.30045555 8.29297206 144.76318359 8.15820312 C128.4637201 7.29996955 112.16205077 6.55426684 95.8538208 5.88653564 C79.40068025 5.20781331 62.97020612 4.25833541 46.53503418 3.23788452 C31.02662939 2.27560882 15.53311413 1.44777367 0 1 C0 0.67 0 0.34 0 0 Z " fill="#F37462" transform="translate(413,744)"/>
<path d="M0 0 C3.96 0 7.92 0 12 0 C12 11.88 12 23.76 12 36 C8.04 36 4.08 36 0 36 C0 24.12 0 12.24 0 0 Z " fill="#000000" transform="translate(456,35)"/>
<path d="M0 0 C19.00455581 0.96355353 19.00455581 0.96355353 27 2 C27 2.33 27 2.66 27 3 C23.62501842 3.02922646 20.25006979 3.04687468 16.875 3.0625 C15.44800781 3.07506836 15.44800781 3.07506836 13.9921875 3.08789062 C9.20981513 3.10449608 4.70228431 3.00537055 0 2 C0 1.34 0 0.68 0 0 Z " fill="#43A597" transform="translate(316,67)"/>
</svg>
