<svg width="24" height="28" viewBox="0 0 24 28" fill="none" xmlns="http://www.w3.org/2000/svg">
<path d="M22.1045 11.1736C24.2803 12.4298 24.2803 15.5702 22.1045 16.8264L4.89545 26.7621C2.71969 28.0182 -1.33093e-06 26.448 -1.22111e-06 23.9357L-3.52503e-07 4.06432C-2.42685e-07 1.55197 2.7197 -0.0182392 4.89546 1.23794L22.1045 11.1736Z" fill="#1D1D1D"/>
<path d="M22.1045 11.1736C24.2803 12.4298 24.2803 15.5702 22.1045 16.8264L4.89545 26.7621C2.71969 28.0182 -1.33093e-06 26.448 -1.22111e-06 23.9357L-3.52503e-07 4.06432C-2.42685e-07 1.55197 2.7197 -0.0182392 4.89546 1.23794L22.1045 11.1736Z" fill="white"/>
</svg>
